<svg xmlns="http://www.w3.org/2000/svg" xmlns:xlink="http://www.w3.org/1999/xlink" contentStyleType="text/css" data-diagram-type="CLASS" height="1368px" preserveAspectRatio="none" style="width:1332px;height:1368px;background:#FFFFFF;" version="1.1" viewBox="0 0 1332 1368" width="1332px" zoomAndPan="magnify"><defs/><g><!--cluster bookrecommender--><g class="cluster" data-entity="bookrecommender" data-source-line="2" data-uid="ent0004" id="cluster_bookrecommender"><path d="M8.5,6 L157.4434,6 A3.75,3.75 0 0 1 159.9434,8.5 L166.9434,28.2969 L1322.5,28.2969 A2.5,2.5 0 0 1 1325,30.7969 L1325,1359.05 A2.5,2.5 0 0 1 1322.5,1361.55 L8.5,1361.55 A2.5,2.5 0 0 1 6,1359.05 L6,8.5 A2.5,2.5 0 0 1 8.5,6" fill="none" style="stroke:#000000;stroke-width:1.5;"/><line style="stroke:#000000;stroke-width:1.5;" x1="6" x2="166.9434" y1="28.2969" y2="28.2969"/><text fill="#000000" font-family="sans-serif" font-size="14" font-weight="bold" lengthAdjust="spacing" textLength="147.9434" x="10" y="20.9951">bookrecommender</text></g><!--cluster libri--><g class="cluster" data-entity="libri" data-source-line="1" data-uid="ent0002" id="cluster_libri"><path d="M725.5,49 L757.8223,49 A3.75,3.75 0 0 1 760.3223,51.5 L767.3223,71.2969 L1164.5,71.2969 A2.5,2.5 0 0 1 1167,73.7969 L1167,275.88 A2.5,2.5 0 0 1 1164.5,278.38 L725.5,278.38 A2.5,2.5 0 0 1 723,275.88 L723,51.5 A2.5,2.5 0 0 1 725.5,49" fill="none" style="stroke:#000000;stroke-width:1.5;"/><line style="stroke:#000000;stroke-width:1.5;" x1="723" x2="767.3223" y1="71.2969" y2="71.2969"/><text fill="#000000" font-family="sans-serif" font-size="14" font-weight="bold" lengthAdjust="spacing" textLength="31.3223" x="727" y="63.9951">libri</text></g><!--cluster utenti--><g class="cluster" data-entity="utenti" data-source-line="15" data-uid="ent0005" id="cluster_utenti"><path d="M32.5,327.38 L81.1123,327.38 A3.75,3.75 0 0 1 83.6123,329.88 L90.6123,349.6769 L409.5,349.6769 A2.5,2.5 0 0 1 412,352.1769 L412,668.33 A2.5,2.5 0 0 1 409.5,670.83 L32.5,670.83 A2.5,2.5 0 0 1 30,668.33 L30,329.88 A2.5,2.5 0 0 1 32.5,327.38" fill="none" style="stroke:#000000;stroke-width:1.5;"/><line style="stroke:#000000;stroke-width:1.5;" x1="30" x2="90.6123" y1="349.6769" y2="349.6769"/><text fill="#000000" font-family="sans-serif" font-size="14" font-weight="bold" lengthAdjust="spacing" textLength="47.6123" x="34" y="342.3751">utenti</text></g><!--cluster utili--><g class="cluster" data-entity="utili" data-source-line="35" data-uid="ent0007" id="cluster_utili"><path d="M438.5,335.53 L470.5557,335.53 A3.75,3.75 0 0 1 473.0557,338.03 L480.0557,357.8269 L1150.5,357.8269 A2.5,2.5 0 0 1 1153,360.3269 L1153,660.18 A2.5,2.5 0 0 1 1150.5,662.68 L438.5,662.68 A2.5,2.5 0 0 1 436,660.18 L436,338.03 A2.5,2.5 0 0 1 438.5,335.53" fill="none" style="stroke:#000000;stroke-width:1.5;"/><line style="stroke:#000000;stroke-width:1.5;" x1="436" x2="480.0557" y1="357.8269" y2="357.8269"/><text fill="#000000" font-family="sans-serif" font-size="14" font-weight="bold" lengthAdjust="spacing" textLength="31.0557" x="440" y="350.5251">utili</text></g><!--cluster condivisi--><g class="cluster" data-entity="condivisi" data-source-line="68" data-uid="ent0012" id="cluster_condivisi"><path d="M201.5,719.83 L272.2607,719.83 A3.75,3.75 0 0 1 274.7607,722.33 L281.7607,742.1269 L1167.5,742.1269 A2.5,2.5 0 0 1 1170,744.6269 L1170,1021.97 A2.5,2.5 0 0 1 1167.5,1024.47 L201.5,1024.47 A2.5,2.5 0 0 1 199,1021.97 L199,722.33 A2.5,2.5 0 0 1 201.5,719.83" fill="none" style="stroke:#000000;stroke-width:1.5;"/><line style="stroke:#000000;stroke-width:1.5;" x1="199" x2="281.7607" y1="742.1269" y2="742.1269"/><text fill="#000000" font-family="sans-serif" font-size="14" font-weight="bold" lengthAdjust="spacing" textLength="69.7607" x="203" y="734.8251">condivisi</text></g><!--cluster libri--><g class="cluster" data-entity="libri" data-source-line="67" data-uid="ent0010" id="cluster_libri"><path d="M225.5,762.83 L257.8223,762.83 A3.75,3.75 0 0 1 260.3223,765.33 L267.3223,785.1269 L1143.5,785.1269 A2.5,2.5 0 0 1 1146,787.6269 L1146,997.97 A2.5,2.5 0 0 1 1143.5,1000.47 L225.5,1000.47 A2.5,2.5 0 0 1 223,997.97 L223,765.33 A2.5,2.5 0 0 1 225.5,762.83" fill="none" style="stroke:#000000;stroke-width:1.5;"/><line style="stroke:#000000;stroke-width:1.5;" x1="223" x2="267.3223" y1="785.1269" y2="785.1269"/><text fill="#000000" font-family="sans-serif" font-size="14" font-weight="bold" lengthAdjust="spacing" textLength="31.3223" x="227" y="777.8251">libri</text></g><!--cluster server--><g class="cluster" data-entity="server" data-source-line="92" data-uid="ent0016" id="cluster_server"><path d="M166.5,1057.47 L217.7578,1057.47 A3.75,3.75 0 0 1 220.2578,1059.97 L227.2578,1079.7669 L1298.5,1079.7669 A2.5,2.5 0 0 1 1301,1082.2669 L1301,1335.05 A2.5,2.5 0 0 1 1298.5,1337.55 L166.5,1337.55 A2.5,2.5 0 0 1 164,1335.05 L164,1059.97 A2.5,2.5 0 0 1 166.5,1057.47" fill="none" style="stroke:#000000;stroke-width:1.5;"/><line style="stroke:#000000;stroke-width:1.5;" x1="164" x2="227.2578" y1="1079.7669" y2="1079.7669"/><text fill="#000000" font-family="sans-serif" font-size="14" font-weight="bold" lengthAdjust="spacing" textLength="50.2578" x="168" y="1072.4651">server</text></g><!--cluster libri--><g class="cluster" data-entity="libri" data-source-line="91" data-uid="ent0014" id="cluster_libri"><path d="M190.5,1100.47 L222.8223,1100.47 A3.75,3.75 0 0 1 225.3223,1102.97 L232.3223,1122.7669 L1274.5,1122.7669 A2.5,2.5 0 0 1 1277,1125.2669 L1277,1311.05 A2.5,2.5 0 0 1 1274.5,1313.55 L190.5,1313.55 A2.5,2.5 0 0 1 188,1311.05 L188,1102.97 A2.5,2.5 0 0 1 190.5,1100.47" fill="none" style="stroke:#000000;stroke-width:1.5;"/><line style="stroke:#000000;stroke-width:1.5;" x1="188" x2="232.3223" y1="1122.7669" y2="1122.7669"/><text fill="#000000" font-family="sans-serif" font-size="14" font-weight="bold" lengthAdjust="spacing" textLength="31.3223" x="192" y="1115.4651">libri</text></g><!--class CercaLibriController--><g class="entity" data-entity="CercaLibriController" data-source-line="2" data-uid="ent0003" id="entity_CercaLibriController"><rect fill="#F1F1F1" height="178.375" rx="2.5" ry="2.5" style="stroke:#181818;stroke-width:0.5;" width="412.8184" x="738.59" y="84"/><ellipse cx="870.8415" cy="100" fill="#ADD1B2" rx="11" ry="11" style="stroke:#181818;stroke-width:1;"/><path d="M873.8102,105.6406 Q873.2321,105.9375 872.5915,106.0781 Q871.9508,106.2344 871.2477,106.2344 Q868.7477,106.2344 867.4196,104.5938 Q866.1071,102.9375 866.1071,99.8125 Q866.1071,96.6875 867.4196,95.0313 Q868.7477,93.375 871.2477,93.375 Q871.9508,93.375 872.5915,93.5313 Q873.2477,93.6875 873.8102,93.9844 L873.8102,96.7031 Q873.1852,96.125 872.5915,95.8594 Q871.9977,95.5781 871.3727,95.5781 Q870.029,95.5781 869.3415,96.6563 Q868.654,97.7188 868.654,99.8125 Q868.654,101.9063 869.3415,102.9844 Q870.029,104.0469 871.3727,104.0469 Q871.9977,104.0469 872.5915,103.7813 Q873.1852,103.5 873.8102,102.9219 L873.8102,105.6406 Z " fill="#000000"/><text fill="#000000" font-family="sans-serif" font-size="14" lengthAdjust="spacing" textLength="139.8154" x="891.3415" y="104.8467">CercaLibriController</text><line style="stroke:#181818;stroke-width:0.5;" x1="739.59" x2="1150.4084" y1="116" y2="116"/><line style="stroke:#181818;stroke-width:0.5;" x1="739.59" x2="1150.4084" y1="124" y2="124"/><ellipse cx="749.59" cy="137.6484" fill="#84BE84" rx="3" ry="3" style="stroke:#038048;stroke-width:1;"/><text fill="#000000" font-family="sans-serif" font-size="14" lengthAdjust="spacing" textLength="386.8184" x="758.59" y="140.9951">void initialize(URL location, ResourceBundle resources)</text><ellipse cx="749.59" cy="153.9453" fill="#84BE84" rx="3" ry="3" style="stroke:#038048;stroke-width:1;"/><text fill="#000000" font-family="sans-serif" font-size="14" lengthAdjust="spacing" textLength="110.8447" x="758.59" y="157.292">void onSearch()</text><ellipse cx="749.59" cy="170.2422" fill="#84BE84" rx="3" ry="3" style="stroke:#038048;stroke-width:1;"/><text fill="#000000" font-family="sans-serif" font-size="14" lengthAdjust="spacing" textLength="99.0527" x="758.59" y="173.5889">void onClear()</text><rect fill="#F24D5C" height="6" style="stroke:#C82930;stroke-width:1;" width="6" x="746.59" y="183.5391"/><text fill="#000000" font-family="sans-serif" font-size="14" lengthAdjust="spacing" textLength="122.7188" x="758.59" y="189.8857">void searchById()</text><rect fill="#F24D5C" height="6" style="stroke:#C82930;stroke-width:1;" width="6" x="746.59" y="199.8359"/><text fill="#000000" font-family="sans-serif" font-size="14" lengthAdjust="spacing" textLength="140.1367" x="758.59" y="206.1826">void searchByTitle()</text><rect fill="#F24D5C" height="6" style="stroke:#C82930;stroke-width:1;" width="6" x="746.59" y="216.1328"/><text fill="#000000" font-family="sans-serif" font-size="14" lengthAdjust="spacing" textLength="156.8369" x="758.59" y="222.4795">void searchByAuthor()</text><rect fill="#F24D5C" height="6" style="stroke:#C82930;stroke-width:1;" width="6" x="746.59" y="232.4297"/><text fill="#000000" font-family="sans-serif" font-size="14" lengthAdjust="spacing" textLength="215.6738" x="758.59" y="238.7764">void searchByAuthorAndYear()</text><rect fill="#F24D5C" height="6" style="stroke:#C82930;stroke-width:1;" width="6" x="746.59" y="248.7266"/><text fill="#000000" font-family="sans-serif" font-size="14" lengthAdjust="spacing" textLength="302.1621" x="758.59" y="255.0732">BookRecord mapLibroToRecord(Libro libro)</text></g><!--class GestoreSessione--><g class="entity" data-entity="GestoreSessione" data-source-line="16" data-uid="ent0006" id="entity_GestoreSessione"><rect fill="#F1F1F1" height="292.4531" rx="2.5" ry="2.5" style="stroke:#181818;stroke-width:0.5;" width="349.709" x="46.15" y="362.38"/><ellipse cx="158.15" cy="378.38" fill="#ADD1B2" rx="11" ry="11" style="stroke:#181818;stroke-width:1;"/><path d="M161.1188,384.0206 Q160.5406,384.3175 159.9,384.4581 Q159.2594,384.6144 158.5563,384.6144 Q156.0563,384.6144 154.7281,382.9738 Q153.4156,381.3175 153.4156,378.1925 Q153.4156,375.0675 154.7281,373.4113 Q156.0563,371.755 158.5563,371.755 Q159.2594,371.755 159.9,371.9113 Q160.5563,372.0675 161.1188,372.3644 L161.1188,375.0831 Q160.4938,374.505 159.9,374.2394 Q159.3063,373.9581 158.6813,373.9581 Q157.3375,373.9581 156.65,375.0363 Q155.9625,376.0988 155.9625,378.1925 Q155.9625,380.2863 156.65,381.3644 Q157.3375,382.4269 158.6813,382.4269 Q159.3063,382.4269 159.9,382.1613 Q160.4938,381.88 161.1188,381.3019 L161.1188,384.0206 Z " fill="#000000"/><text fill="#000000" font-family="sans-serif" font-size="14" lengthAdjust="spacing" textLength="117.209" x="178.65" y="383.2267">GestoreSessione</text><line style="stroke:#181818;stroke-width:0.5;" x1="47.15" x2="394.859" y1="394.38" y2="394.38"/><rect fill="none" height="6" style="stroke:#C82930;stroke-width:1;" width="6" x="54.15" y="405.0284"/><text fill="#000000" font-family="sans-serif" font-size="14" lengthAdjust="spacing" textLength="223.8564" x="66.15" y="411.3751">static GestoreSessione instance</text><rect fill="none" height="6" style="stroke:#C82930;stroke-width:1;" width="6" x="54.15" y="421.3253"/><text fill="#000000" font-family="sans-serif" font-size="14" lengthAdjust="spacing" textLength="142.2148" x="66.15" y="427.672">String currentUserId</text><rect fill="none" height="6" style="stroke:#C82930;stroke-width:1;" width="6" x="54.15" y="437.6222"/><text fill="#000000" font-family="sans-serif" font-size="14" lengthAdjust="spacing" textLength="170.502" x="66.15" y="443.9689">String currentUserName</text><rect fill="none" height="6" style="stroke:#C82930;stroke-width:1;" width="6" x="54.15" y="453.9191"/><text fill="#000000" font-family="sans-serif" font-size="14" lengthAdjust="spacing" textLength="170.5498" x="66.15" y="460.2657">boolean isAuthenticated</text><line style="stroke:#181818;stroke-width:0.5;" x1="47.15" x2="394.859" y1="467.5675" y2="467.5675"/><ellipse cx="57.15" cy="481.2159" fill="#84BE84" rx="3" ry="3" style="stroke:#038048;stroke-width:1;"/><text fill="#000000" font-family="sans-serif" font-size="14" lengthAdjust="spacing" textLength="258.0088" x="66.15" y="484.5626">static GestoreSessione getInstance()</text><ellipse cx="57.15" cy="497.5128" fill="#84BE84" rx="3" ry="3" style="stroke:#038048;stroke-width:1;"/><text fill="#000000" font-family="sans-serif" font-size="14" lengthAdjust="spacing" textLength="178.2061" x="66.15" y="500.8595">String getCurrentUserId()</text><ellipse cx="57.15" cy="513.8097" fill="#84BE84" rx="3" ry="3" style="stroke:#038048;stroke-width:1;"/><text fill="#000000" font-family="sans-serif" font-size="14" lengthAdjust="spacing" textLength="254.2422" x="66.15" y="517.1564">void setCurrentUserId(String userId)</text><ellipse cx="57.15" cy="530.1066" fill="#84BE84" rx="3" ry="3" style="stroke:#038048;stroke-width:1;"/><text fill="#000000" font-family="sans-serif" font-size="14" lengthAdjust="spacing" textLength="176.6953" x="66.15" y="533.4532">String getLoggedInUser()</text><ellipse cx="57.15" cy="546.4034" fill="#84BE84" rx="3" ry="3" style="stroke:#038048;stroke-width:1;"/><text fill="#000000" font-family="sans-serif" font-size="14" lengthAdjust="spacing" textLength="281.0186" x="66.15" y="549.7501">void setLoggedInUser(String userName)</text><ellipse cx="57.15" cy="562.7003" fill="#84BE84" rx="3" ry="3" style="stroke:#038048;stroke-width:1;"/><text fill="#000000" font-family="sans-serif" font-size="14" lengthAdjust="spacing" textLength="147.1709" x="66.15" y="566.047">boolean isLoggedIn()</text><ellipse cx="57.15" cy="578.9972" fill="#84BE84" rx="3" ry="3" style="stroke:#038048;stroke-width:1;"/><text fill="#000000" font-family="sans-serif" font-size="14" lengthAdjust="spacing" textLength="323.709" x="66.15" y="582.3439">void setAuthenticated(boolean authenticated)</text><ellipse cx="57.15" cy="595.2941" fill="#84BE84" rx="3" ry="3" style="stroke:#038048;stroke-width:1;"/><text fill="#000000" font-family="sans-serif" font-size="14" lengthAdjust="spacing" textLength="132.9521" x="66.15" y="598.6407">void clearSession()</text><ellipse cx="57.15" cy="611.5909" fill="#84BE84" rx="3" ry="3" style="stroke:#038048;stroke-width:1;"/><text fill="#000000" font-family="sans-serif" font-size="14" lengthAdjust="spacing" textLength="295.8594" x="66.15" y="614.9376">void login(String userId, String userName)</text><ellipse cx="57.15" cy="627.8878" fill="#84BE84" rx="3" ry="3" style="stroke:#038048;stroke-width:1;"/><text fill="#000000" font-family="sans-serif" font-size="14" lengthAdjust="spacing" textLength="184.3311" x="66.15" y="631.2345">boolean hasValidSession()</text><ellipse cx="57.15" cy="644.1847" fill="#84BE84" rx="3" ry="3" style="stroke:#038048;stroke-width:1;"/><text fill="#000000" font-family="sans-serif" font-size="14" lengthAdjust="spacing" textLength="233.4063" x="66.15" y="647.5314">boolean loadSessionFromToken()</text></g><!--class ParticleAnimation--><g class="entity" data-entity="ParticleAnimation" data-source-line="36" data-uid="ent0008" id="entity_ParticleAnimation"><rect fill="#F1F1F1" height="276.1563" rx="2.5" ry="2.5" style="stroke:#181818;stroke-width:0.5;" width="265.7979" x="452.1" y="370.53"/><ellipse cx="518.8837" cy="386.53" fill="#ADD1B2" rx="11" ry="11" style="stroke:#181818;stroke-width:1;"/><path d="M521.8524,392.1706 Q521.2743,392.4675 520.6337,392.6081 Q519.9931,392.7644 519.2899,392.7644 Q516.7899,392.7644 515.4618,391.1238 Q514.1493,389.4675 514.1493,386.3425 Q514.1493,383.2175 515.4618,381.5613 Q516.7899,379.905 519.2899,379.905 Q519.9931,379.905 520.6337,380.0613 Q521.2899,380.2175 521.8524,380.5144 L521.8524,383.2331 Q521.2274,382.655 520.6337,382.3894 Q520.0399,382.1081 519.4149,382.1081 Q518.0712,382.1081 517.3837,383.1863 Q516.6962,384.2488 516.6962,386.3425 Q516.6962,388.4363 517.3837,389.5144 Q518.0712,390.5769 519.4149,390.5769 Q520.0399,390.5769 520.6337,390.3113 Q521.2274,390.03 521.8524,389.4519 L521.8524,392.1706 Z " fill="#000000"/><text fill="#000000" font-family="sans-serif" font-size="14" lengthAdjust="spacing" textLength="123.7305" x="539.3837" y="391.3767">ParticleAnimation</text><line style="stroke:#181818;stroke-width:0.5;" x1="453.1" x2="716.8979" y1="402.53" y2="402.53"/><rect fill="none" height="6" style="stroke:#C82930;stroke-width:1;" width="6" x="460.1" y="413.1784"/><text fill="#000000" font-family="sans-serif" font-size="14" lengthAdjust="spacing" textLength="105.1436" x="472.1" y="419.5251">Canvas canvas</text><rect fill="none" height="6" style="stroke:#C82930;stroke-width:1;" width="6" x="460.1" y="429.4753"/><text fill="#000000" font-family="sans-serif" font-size="14" lengthAdjust="spacing" textLength="137.9492" x="472.1" y="435.822">GraphicsContext gc</text><rect fill="none" height="6" style="stroke:#C82930;stroke-width:1;" width="6" x="460.1" y="445.7722"/><text fill="#000000" font-family="sans-serif" font-size="14" lengthAdjust="spacing" textLength="164.835" x="472.1" y="452.1189">List&lt;Particle&gt; particles</text><rect fill="none" height="6" style="stroke:#C82930;stroke-width:1;" width="6" x="460.1" y="462.0691"/><text fill="#000000" font-family="sans-serif" font-size="14" lengthAdjust="spacing" textLength="153.6582" x="472.1" y="468.4157">AnimationTimer timer</text><rect fill="none" height="6" style="stroke:#C82930;stroke-width:1;" width="6" x="460.1" y="478.3659"/><text fill="#000000" font-family="sans-serif" font-size="14" lengthAdjust="spacing" textLength="117.0176" x="472.1" y="484.7126">Random random</text><rect fill="none" height="6" style="stroke:#C82930;stroke-width:1;" width="6" x="460.1" y="494.6628"/><text fill="#000000" font-family="sans-serif" font-size="14" lengthAdjust="spacing" textLength="170.0986" x="472.1" y="501.0095">volatile boolean running</text><rect fill="none" height="6" style="stroke:#C82930;stroke-width:1;" width="6" x="460.1" y="510.9597"/><text fill="#000000" font-family="sans-serif" font-size="14" lengthAdjust="spacing" textLength="101.9648" x="472.1" y="517.3064">long startTime</text><rect fill="none" height="6" style="stroke:#C82930;stroke-width:1;" width="6" x="460.1" y="527.2566"/><text fill="#000000" font-family="sans-serif" font-size="14" lengthAdjust="spacing" textLength="165.8467" x="472.1" y="533.6032">long animationDuration</text><rect fill="none" height="6" style="stroke:#C82930;stroke-width:1;" width="6" x="460.1" y="543.5534"/><text fill="#000000" font-family="sans-serif" font-size="14" lengthAdjust="spacing" textLength="207.0811" x="472.1" y="549.9001">static Color PARTICLE_COLOR</text><rect fill="none" height="6" style="stroke:#C82930;stroke-width:1;" width="6" x="460.1" y="559.8503"/><text fill="#000000" font-family="sans-serif" font-size="14" lengthAdjust="spacing" textLength="151.5322" x="472.1" y="566.197">boolean pendingStart</text><rect fill="none" height="6" style="stroke:#C82930;stroke-width:1;" width="6" x="460.1" y="576.1472"/><text fill="#000000" font-family="sans-serif" font-size="14" lengthAdjust="spacing" textLength="183.3398" x="472.1" y="582.4939">boolean listenersAttached</text><line style="stroke:#181818;stroke-width:0.5;" x1="453.1" x2="716.8979" y1="589.7956" y2="589.7956"/><ellipse cx="463.1" cy="603.4441" fill="#84BE84" rx="3" ry="3" style="stroke:#038048;stroke-width:1;"/><text fill="#000000" font-family="sans-serif" font-size="14" lengthAdjust="spacing" textLength="239.7979" x="472.1" y="606.7907">ParticleAnimation(Canvas canvas)</text><ellipse cx="463.1" cy="619.7409" fill="#84BE84" rx="3" ry="3" style="stroke:#038048;stroke-width:1;"/><text fill="#000000" font-family="sans-serif" font-size="14" lengthAdjust="spacing" textLength="77.6084" x="472.1" y="623.0876">void start()</text><ellipse cx="463.1" cy="636.0378" fill="#84BE84" rx="3" ry="3" style="stroke:#038048;stroke-width:1;"/><text fill="#000000" font-family="sans-serif" font-size="14" lengthAdjust="spacing" textLength="75.2363" x="472.1" y="639.3845">void stop()</text></g><!--class ViewsController--><g class="entity" data-entity="ViewsController" data-source-line="53" data-uid="ent0009" id="entity_ViewsController"><rect fill="#F1F1F1" height="210.9688" rx="2.5" ry="2.5" style="stroke:#181818;stroke-width:0.5;" width="383.3623" x="753.32" y="403.12"/><ellipse cx="885.7526" cy="419.12" fill="#ADD1B2" rx="11" ry="11" style="stroke:#181818;stroke-width:1;"/><path d="M888.7214,424.7606 Q888.1432,425.0575 887.5026,425.1981 Q886.862,425.3544 886.1589,425.3544 Q883.6589,425.3544 882.3307,423.7138 Q881.0182,422.0575 881.0182,418.9325 Q881.0182,415.8075 882.3307,414.1513 Q883.6589,412.495 886.1589,412.495 Q886.862,412.495 887.5026,412.6513 Q888.1589,412.8075 888.7214,413.1044 L888.7214,415.8231 Q888.0964,415.245 887.5026,414.9794 Q886.9089,414.6981 886.2839,414.6981 Q884.9401,414.6981 884.2526,415.7763 Q883.5651,416.8388 883.5651,418.9325 Q883.5651,421.0263 884.2526,422.1044 Q884.9401,423.1669 886.2839,423.1669 Q886.9089,423.1669 887.5026,422.9013 Q888.0964,422.62 888.7214,422.0419 L888.7214,424.7606 Z " fill="#000000"/><text fill="#000000" font-family="sans-serif" font-size="14" lengthAdjust="spacing" textLength="109.9971" x="906.2526" y="423.9667">ViewsController</text><line style="stroke:#181818;stroke-width:0.5;" x1="754.32" x2="1135.6823" y1="435.12" y2="435.12"/><rect fill="none" height="6" style="stroke:#C82930;stroke-width:1;" width="6" x="761.32" y="445.7684"/><text fill="#000000" font-family="sans-serif" font-size="14" lengthAdjust="spacing" textLength="187.4961" x="773.32" y="452.1151">static Scene primaryScene</text><rect fill="none" height="6" style="stroke:#C82930;stroke-width:1;" width="6" x="761.32" y="462.0653"/><text fill="#000000" font-family="sans-serif" font-size="14" lengthAdjust="spacing" textLength="183.0391" x="773.32" y="468.412">static Stage primaryStage</text><rect fill="none" height="6" style="stroke:#C82930;stroke-width:1;" width="6" x="761.32" y="478.3622"/><text fill="#000000" font-family="sans-serif" font-size="14" lengthAdjust="spacing" textLength="229.1953" x="773.32" y="484.7089">static boolean initiallyMaximized</text><rect fill="none" height="6" style="stroke:#C82930;stroke-width:1;" width="6" x="761.32" y="494.6591"/><text fill="#000000" font-family="sans-serif" font-size="14" lengthAdjust="spacing" textLength="227.1309" x="773.32" y="501.0057">static boolean initiallyFullScreen</text><line style="stroke:#181818;stroke-width:0.5;" x1="754.32" x2="1135.6823" y1="508.3075" y2="508.3075"/><ellipse cx="764.32" cy="521.9559" fill="#84BE84" rx="3" ry="3" style="stroke:#038048;stroke-width:1;"/><text fill="#000000" font-family="sans-serif" font-size="14" lengthAdjust="spacing" textLength="230.0088" x="773.32" y="525.3026">static void initialize(Stage stage)</text><ellipse cx="764.32" cy="538.2528" fill="#84BE84" rx="3" ry="3" style="stroke:#038048;stroke-width:1;"/><text fill="#000000" font-family="sans-serif" font-size="14" lengthAdjust="spacing" textLength="208.3252" x="773.32" y="541.5995">static void mostraBenvenuti()</text><ellipse cx="764.32" cy="554.5497" fill="#84BE84" rx="3" ry="3" style="stroke:#038048;stroke-width:1;"/><text fill="#000000" font-family="sans-serif" font-size="14" lengthAdjust="spacing" textLength="175.2256" x="773.32" y="557.8964">static void mostraLogin()</text><ellipse cx="764.32" cy="570.8466" fill="#84BE84" rx="3" ry="3" style="stroke:#038048;stroke-width:1;"/><text fill="#000000" font-family="sans-serif" font-size="14" lengthAdjust="spacing" textLength="218.7568" x="773.32" y="574.1932">static void mostraAreaPrivata()</text><ellipse cx="764.32" cy="587.1434" fill="#84BE84" rx="3" ry="3" style="stroke:#038048;stroke-width:1;"/><text fill="#000000" font-family="sans-serif" font-size="14" lengthAdjust="spacing" textLength="207.8535" x="773.32" y="590.4901">static void mostraCercaLibri()</text><ellipse cx="764.32" cy="603.4403" fill="#84BE84" rx="3" ry="3" style="stroke:#038048;stroke-width:1;"/><text fill="#000000" font-family="sans-serif" font-size="14" lengthAdjust="spacing" textLength="357.3623" x="773.32" y="606.787">static void mostraDettagliLibro(Libro, Provenienza)</text></g><!--class CercaLibriService--><g class="entity" data-entity="CercaLibriService" data-source-line="68" data-uid="ent0011" id="entity_CercaLibriService"><rect fill="#F1F1F1" height="145.7813" rx="2.5" ry="2.5" style="stroke:#181818;stroke-width:0.5;" width="703.8789" x="239.06" y="818.26"/><ellipse cx="525.5576" cy="834.26" fill="#B4A7E5" rx="11" ry="11" style="stroke:#181818;stroke-width:1;"/><path d="M521.4794,830.0256 L521.4794,827.8694 L528.8701,827.8694 L528.8701,830.0256 L526.4013,830.0256 L526.4013,838.1038 L528.8701,838.1038 L528.8701,840.26 L521.4794,840.26 L521.4794,838.1038 L523.9482,838.1038 L523.9482,830.0256 L521.4794,830.0256 Z " fill="#000000"/><text fill="#000000" font-family="sans-serif" font-size="14" font-style="italic" lengthAdjust="spacing" textLength="122.3838" x="546.0576" y="839.1067">CercaLibriService</text><line style="stroke:#181818;stroke-width:0.5;" x1="240.06" x2="941.9389" y1="850.26" y2="850.26"/><ellipse cx="250.06" cy="863.9084" fill="none" rx="3" ry="3" style="stroke:#038048;stroke-width:1;"/><text fill="#000000" font-family="sans-serif" font-size="14" lengthAdjust="spacing" textLength="87.2061" x="259.06" y="867.2551">String NAME</text><line style="stroke:#181818;stroke-width:0.5;" x1="240.06" x2="941.9389" y1="874.5569" y2="874.5569"/><ellipse cx="250.06" cy="888.2053" fill="#84BE84" rx="3" ry="3" style="stroke:#038048;stroke-width:1;"/><text fill="#000000" font-family="sans-serif" font-size="14" lengthAdjust="spacing" textLength="509.4482" x="259.06" y="891.552">List&lt;Libro&gt; cercaLibro_Per_Titolo(String titolo) throws RemoteException</text><ellipse cx="250.06" cy="904.5022" fill="#84BE84" rx="3" ry="3" style="stroke:#038048;stroke-width:1;"/><text fill="#000000" font-family="sans-serif" font-size="14" lengthAdjust="spacing" textLength="527.3584" x="259.06" y="907.8489">List&lt;Libro&gt; cercaLibro_Per_Autore(String autore) throws RemoteException</text><ellipse cx="250.06" cy="920.7991" fill="#84BE84" rx="3" ry="3" style="stroke:#038048;stroke-width:1;"/><text fill="#000000" font-family="sans-serif" font-size="14" lengthAdjust="spacing" textLength="677.8789" x="259.06" y="924.1457">List&lt;Libro&gt; cercaLibro_Per_Autore_e_Anno(String Autore, String Anno) throws RemoteException</text><ellipse cx="250.06" cy="937.0959" fill="#84BE84" rx="3" ry="3" style="stroke:#038048;stroke-width:1;"/><text fill="#000000" font-family="sans-serif" font-size="14" lengthAdjust="spacing" textLength="393.6133" x="259.06" y="940.4426">Libro getTitoloLibroById(int id) throws RemoteException</text><ellipse cx="250.06" cy="953.3928" fill="#84BE84" rx="3" ry="3" style="stroke:#038048;stroke-width:1;"/><text fill="#000000" font-family="sans-serif" font-size="14" lengthAdjust="spacing" textLength="452.7441" x="259.06" y="956.7395">List&lt;Libro&gt; cercaLibro_Per_Id(Long id) throws RemoteException</text></g><!--class Libro--><g class="entity" data-entity="Libro" data-source-line="77" data-uid="ent0013" id="entity_Libro"><rect fill="#F1F1F1" height="186.6406" rx="2.5" ry="2.5" style="stroke:#181818;stroke-width:0.5;" width="151.6582" x="978.17" y="797.83"/><ellipse cx="1025.004" cy="817.9628" fill="#ADD1B2" rx="11" ry="11" style="stroke:#181818;stroke-width:1;"/><path d="M1027.9727,823.6034 Q1027.3946,823.9003 1026.754,824.0409 Q1026.1134,824.1972 1025.4102,824.1972 Q1022.9102,824.1972 1021.5821,822.5566 Q1020.2696,820.9003 1020.2696,817.7753 Q1020.2696,814.6503 1021.5821,812.9941 Q1022.9102,811.3378 1025.4102,811.3378 Q1026.1134,811.3378 1026.754,811.4941 Q1027.4102,811.6503 1027.9727,811.9472 L1027.9727,814.6659 Q1027.3477,814.0878 1026.754,813.8222 Q1026.1602,813.5409 1025.5352,813.5409 Q1024.1915,813.5409 1023.504,814.6191 Q1022.8165,815.6816 1022.8165,817.7753 Q1022.8165,819.8691 1023.504,820.9472 Q1024.1915,822.0097 1025.5352,822.0097 Q1026.1602,822.0097 1026.754,821.7441 Q1027.3477,821.4628 1027.9727,820.8847 L1027.9727,823.6034 Z " fill="#000000"/><text fill="#000000" font-family="sans-serif" font-size="12" font-style="italic" lengthAdjust="spacing" textLength="53.4902" x="1043.504" y="813.9687">&#171;record&#187;</text><text fill="#000000" font-family="sans-serif" font-size="14" lengthAdjust="spacing" textLength="34.8975" x="1052.8004" y="829.7939">Libro</text><line style="stroke:#181818;stroke-width:0.5;" x1="979.17" x2="1128.8282" y1="838.0956" y2="838.0956"/><ellipse cx="989.17" cy="851.7441" fill="none" rx="3" ry="3" style="stroke:#038048;stroke-width:1;"/><text fill="#000000" font-family="sans-serif" font-size="14" lengthAdjust="spacing" textLength="51.3516" x="998.17" y="855.0907">Long id</text><ellipse cx="989.17" cy="868.0409" fill="none" rx="3" ry="3" style="stroke:#038048;stroke-width:1;"/><text fill="#000000" font-family="sans-serif" font-size="14" lengthAdjust="spacing" textLength="82.1201" x="998.17" y="871.3876">String titolo</text><ellipse cx="989.17" cy="884.3378" fill="none" rx="3" ry="3" style="stroke:#038048;stroke-width:1;"/><text fill="#000000" font-family="sans-serif" font-size="14" lengthAdjust="spacing" textLength="87.3838" x="998.17" y="887.6845">String autori</text><ellipse cx="989.17" cy="900.6347" fill="none" rx="3" ry="3" style="stroke:#038048;stroke-width:1;"/><text fill="#000000" font-family="sans-serif" font-size="14" lengthAdjust="spacing" textLength="81.1221" x="998.17" y="903.9814">String anno</text><ellipse cx="989.17" cy="916.9316" fill="none" rx="3" ry="3" style="stroke:#038048;stroke-width:1;"/><text fill="#000000" font-family="sans-serif" font-size="14" lengthAdjust="spacing" textLength="125.6582" x="998.17" y="920.2782">String descrizione</text><ellipse cx="989.17" cy="933.2284" fill="none" rx="3" ry="3" style="stroke:#038048;stroke-width:1;"/><text fill="#000000" font-family="sans-serif" font-size="14" lengthAdjust="spacing" textLength="112.3213" x="998.17" y="936.5751">String categorie</text><ellipse cx="989.17" cy="949.5253" fill="none" rx="3" ry="3" style="stroke:#038048;stroke-width:1;"/><text fill="#000000" font-family="sans-serif" font-size="14" lengthAdjust="spacing" textLength="96.0449" x="998.17" y="952.872">String editore</text><ellipse cx="989.17" cy="965.8222" fill="none" rx="3" ry="3" style="stroke:#038048;stroke-width:1;"/><text fill="#000000" font-family="sans-serif" font-size="14" lengthAdjust="spacing" textLength="92.75" x="998.17" y="969.1689">String prezzo</text><line style="stroke:#181818;stroke-width:0.5;" x1="979.17" x2="1128.8282" y1="976.4706" y2="976.4706"/></g><!--class CercaLibriServiceImpl--><g class="entity" data-entity="CercaLibriServiceImpl" data-source-line="92" data-uid="ent0015" id="entity_CercaLibriServiceImpl"><rect fill="#F1F1F1" height="162.0781" rx="2.5" ry="2.5" style="stroke:#181818;stroke-width:0.5;" width="607.7656" x="204.12" y="1135.47"/><ellipse cx="427.2894" cy="1151.47" fill="#ADD1B2" rx="11" ry="11" style="stroke:#181818;stroke-width:1;"/><path d="M430.2582,1157.1106 Q429.6801,1157.4075 429.0394,1157.5481 Q428.3988,1157.7044 427.6957,1157.7044 Q425.1957,1157.7044 423.8676,1156.0638 Q422.5551,1154.4075 422.5551,1151.2825 Q422.5551,1148.1575 423.8676,1146.5013 Q425.1957,1144.845 427.6957,1144.845 Q428.3988,1144.845 429.0394,1145.0013 Q429.6957,1145.1575 430.2582,1145.4544 L430.2582,1148.1731 Q429.6332,1147.595 429.0394,1147.3294 Q428.4457,1147.0481 427.8207,1147.0481 Q426.4769,1147.0481 425.7894,1148.1263 Q425.1019,1149.1888 425.1019,1151.2825 Q425.1019,1153.3763 425.7894,1154.4544 Q426.4769,1155.5169 427.8207,1155.5169 Q428.4457,1155.5169 429.0394,1155.2513 Q429.6332,1154.97 430.2582,1154.3919 L430.2582,1157.1106 Z " fill="#000000"/><text fill="#000000" font-family="sans-serif" font-size="14" lengthAdjust="spacing" textLength="152.9268" x="447.7894" y="1156.3167">CercaLibriServiceImpl</text><line style="stroke:#181818;stroke-width:0.5;" x1="205.12" x2="810.8856" y1="1167.47" y2="1167.47"/><rect fill="none" height="6" style="stroke:#C82930;stroke-width:1;" width="6" x="212.12" y="1178.1184"/><text fill="#000000" font-family="sans-serif" font-size="14" lengthAdjust="spacing" textLength="133.0889" x="224.12" y="1184.4651">LibroDAO libroDAO</text><line style="stroke:#181818;stroke-width:0.5;" x1="205.12" x2="810.8856" y1="1191.7669" y2="1191.7669"/><ellipse cx="215.12" cy="1205.4153" fill="#84BE84" rx="3" ry="3" style="stroke:#038048;stroke-width:1;"/><text fill="#000000" font-family="sans-serif" font-size="14" lengthAdjust="spacing" textLength="343.9707" x="224.12" y="1208.762">CercaLibriServiceImpl() throws RemoteException</text><ellipse cx="215.12" cy="1221.7122" fill="#84BE84" rx="3" ry="3" style="stroke:#038048;stroke-width:1;"/><text fill="#000000" font-family="sans-serif" font-size="14" lengthAdjust="spacing" textLength="469.1094" x="224.12" y="1225.0589">List&lt;Libro&gt; cercaLibro_Per_Titolo(String) throws RemoteException</text><ellipse cx="215.12" cy="1238.0091" fill="#84BE84" rx="3" ry="3" style="stroke:#038048;stroke-width:1;"/><text fill="#000000" font-family="sans-serif" font-size="14" lengthAdjust="spacing" textLength="376.3867" x="224.12" y="1241.3557">Libro getTitoloLibroById(int) throws RemoteException</text><ellipse cx="215.12" cy="1254.3059" fill="#84BE84" rx="3" ry="3" style="stroke:#038048;stroke-width:1;"/><text fill="#000000" font-family="sans-serif" font-size="14" lengthAdjust="spacing" textLength="477.0322" x="224.12" y="1257.6526">List&lt;Libro&gt; cercaLibro_Per_Autore(String) throws RemoteException</text><ellipse cx="215.12" cy="1270.6028" fill="#84BE84" rx="3" ry="3" style="stroke:#038048;stroke-width:1;"/><text fill="#000000" font-family="sans-serif" font-size="14" lengthAdjust="spacing" textLength="581.7656" x="224.12" y="1273.9495">List&lt;Libro&gt; cercaLibro_Per_Autore_e_Anno(String,String) throws RemoteException</text><ellipse cx="215.12" cy="1286.8997" fill="#84BE84" rx="3" ry="3" style="stroke:#038048;stroke-width:1;"/><text fill="#000000" font-family="sans-serif" font-size="14" lengthAdjust="spacing" textLength="435.5176" x="224.12" y="1290.2464">List&lt;Libro&gt; cercaLibro_Per_Id(Long) throws RemoteException</text></g><!--class JdbcCercaLibriDAO--><g class="entity" data-entity="JdbcCercaLibriDAO" data-source-line="101" data-uid="ent0017" id="entity_JdbcCercaLibriDAO"><rect fill="#F1F1F1" height="154.0469" rx="2.5" ry="2.5" style="stroke:#181818;stroke-width:0.5;" width="414.7529" x="846.62" y="1139.49"/><ellipse cx="983.9369" cy="1159.6228" fill="#ADD1B2" rx="11" ry="11" style="stroke:#181818;stroke-width:1;"/><path d="M986.9056,1165.2634 Q986.3275,1165.5603 985.6869,1165.7009 Q985.0463,1165.8572 984.3431,1165.8572 Q981.8431,1165.8572 980.515,1164.2166 Q979.2025,1162.5603 979.2025,1159.4353 Q979.2025,1156.3103 980.515,1154.6541 Q981.8431,1152.9978 984.3431,1152.9978 Q985.0463,1152.9978 985.6869,1153.1541 Q986.3431,1153.3103 986.9056,1153.6072 L986.9056,1156.3259 Q986.2806,1155.7478 985.6869,1155.4822 Q985.0931,1155.2009 984.4681,1155.2009 Q983.1244,1155.2009 982.4369,1156.2791 Q981.7494,1157.3416 981.7494,1159.4353 Q981.7494,1161.5291 982.4369,1162.6072 Q983.1244,1163.6697 984.4681,1163.6697 Q985.0931,1163.6697 985.6869,1163.4041 Q986.2806,1163.1228 986.9056,1162.5447 L986.9056,1165.2634 Z " fill="#000000"/><text fill="#000000" font-family="sans-serif" font-size="12" font-style="italic" lengthAdjust="spacing" textLength="53.4902" x="1043.5013" y="1155.6287">&#171;record&#187;</text><text fill="#000000" font-family="sans-serif" font-size="14" lengthAdjust="spacing" textLength="131.6191" x="1004.4369" y="1171.4539">JdbcCercaLibriDAO</text><line style="stroke:#181818;stroke-width:0.5;" x1="847.62" x2="1260.3729" y1="1179.7556" y2="1179.7556"/><line style="stroke:#181818;stroke-width:0.5;" x1="847.62" x2="1260.3729" y1="1187.7556" y2="1187.7556"/><ellipse cx="857.62" cy="1201.4041" fill="#84BE84" rx="3" ry="3" style="stroke:#038048;stroke-width:1;"/><text fill="#000000" font-family="sans-serif" font-size="14" lengthAdjust="spacing" textLength="388.7529" x="866.62" y="1204.7507">Libro creaLibro(String,String,String,String,String,String)</text><ellipse cx="857.62" cy="1217.7009" fill="#84BE84" rx="3" ry="3" style="stroke:#038048;stroke-width:1;"/><text fill="#000000" font-family="sans-serif" font-size="14" lengthAdjust="spacing" textLength="157.3154" x="866.62" y="1221.0476">Libro getLibroById(int)</text><ellipse cx="857.62" cy="1233.9978" fill="#84BE84" rx="3" ry="3" style="stroke:#038048;stroke-width:1;"/><text fill="#000000" font-family="sans-serif" font-size="14" lengthAdjust="spacing" textLength="270.3135" x="866.62" y="1237.3445">List&lt;Libro&gt; cercaLibriPerTitolo(String)</text><ellipse cx="857.62" cy="1250.2947" fill="#84BE84" rx="3" ry="3" style="stroke:#038048;stroke-width:1;"/><text fill="#000000" font-family="sans-serif" font-size="14" lengthAdjust="spacing" textLength="278.2363" x="866.62" y="1253.6414">List&lt;Libro&gt; cercaLibriPerAutore(String)</text><ellipse cx="857.62" cy="1266.5916" fill="#84BE84" rx="3" ry="3" style="stroke:#038048;stroke-width:1;"/><text fill="#000000" font-family="sans-serif" font-size="14" lengthAdjust="spacing" textLength="369.2021" x="866.62" y="1269.9382">List&lt;Libro&gt; cercaLibriPerAutoreEAnno(String,String)</text><ellipse cx="857.62" cy="1282.8884" fill="#84BE84" rx="3" ry="3" style="stroke:#038048;stroke-width:1;"/><text fill="#000000" font-family="sans-serif" font-size="14" lengthAdjust="spacing" textLength="241.3975" x="866.62" y="1286.2351">List&lt;Libro&gt; cercaLibroPerId(Long)</text></g><!--link CercaLibriController to GestoreSessione--><g class="link" data-entity-1="CercaLibriController" data-entity-2="GestoreSessione" data-source-line="113" data-uid="lnk18" id="link_CercaLibriController_GestoreSessione"><path codeLine="113" d="M738.2,211.38 C642.42,233.98 529.42,268.53 436,319.38 C413.78,331.47 396.6537,342.5853 375.8237,358.4453" fill="none" id="CercaLibriController-to-GestoreSessione" style="stroke:#181818;stroke-width:1;"/><polygon fill="#181818" points="371.05,362.08,380.6338,359.8104,375.0281,359.051,375.7875,353.4454,371.05,362.08" style="stroke:#181818;stroke-width:1;"/><text fill="#000000" font-family="sans-serif" font-size="13" lengthAdjust="spacing" textLength="22.9785" x="475" y="307.4469">usa</text></g><!--link CercaLibriController to ParticleAnimation--><g class="link" data-entity-1="CercaLibriController" data-entity-2="ParticleAnimation" data-source-line="114" data-uid="lnk19" id="link_CercaLibriController_ParticleAnimation"><path codeLine="114" d="M805.46,262.73 C781.35,280.34 757.24,299.56 736,319.38 C719.31,334.96 706.8156,347.9011 691.2956,365.7611" fill="none" id="CercaLibriController-to-ParticleAnimation" style="stroke:#181818;stroke-width:1;"/><polygon fill="#181818" points="687.36,370.29,696.2826,366.1203,690.6396,366.5159,690.2441,360.8729,687.36,370.29" style="stroke:#181818;stroke-width:1;"/><text fill="#000000" font-family="sans-serif" font-size="13" lengthAdjust="spacing" textLength="22.9785" x="762" y="307.4469">usa</text></g><!--link CercaLibriController to ViewsController--><g class="link" data-entity-1="CercaLibriController" data-entity-2="ViewsController" data-source-line="115" data-uid="lnk20" id="link_CercaLibriController_ViewsController"><path codeLine="115" d="M945,262.66 C945,305.69 945,351.7 945,396.71" fill="none" id="CercaLibriController-to-ViewsController" style="stroke:#181818;stroke-width:1;"/><polygon fill="#181818" points="945,402.71,949,393.71,945,397.71,941,393.71,945,402.71" style="stroke:#181818;stroke-width:1;"/><text fill="#000000" font-family="sans-serif" font-size="13" lengthAdjust="spacing" textLength="22.9785" x="946" y="307.4469">usa</text></g><!--link JdbcCercaLibriDAO to Libro--><g class="link" data-entity-1="JdbcCercaLibriDAO" data-entity-2="Libro" data-source-line="116" data-uid="lnk21" id="link_JdbcCercaLibriDAO_Libro"><path codeLine="116" d="M1054,1139.19 C1054,1092.97 1054,1039.71 1054,990.81" fill="none" id="JdbcCercaLibriDAO-to-Libro" style="stroke:#181818;stroke-width:1;"/><polygon fill="#181818" points="1054,984.81,1050,993.81,1054,989.81,1058,993.81,1054,984.81" style="stroke:#181818;stroke-width:1;"/></g><!--link ViewsController to Libro--><g class="link" data-entity-1="ViewsController" data-entity-2="Libro" data-source-line="117" data-uid="lnk22" id="link_ViewsController_Libro"><path codeLine="117" d="M975,614.35 C991.42,671.66 1009.9274,736.2821 1025.7774,791.6021" fill="none" id="ViewsController-to-Libro" style="stroke:#181818;stroke-width:1;"/><polygon fill="#181818" points="1027.43,797.37,1028.7964,787.6164,1026.0528,792.5634,1021.1058,789.8198,1027.43,797.37" style="stroke:#181818;stroke-width:1;"/><text fill="#000000" font-family="sans-serif" font-size="13" lengthAdjust="spacing" textLength="66.79" x="1000" y="699.8969">passa dati</text></g><!--link CercaLibriController to Libro--><g class="link" data-entity-1="CercaLibriController" data-entity-2="Libro" data-source-line="118" data-uid="lnk23" id="link_CercaLibriController_Libro"><path codeLine="118" d="M1151.8,258.19 C1163.43,268.9 1173.73,280.91 1182,294.38 C1277.23,449.45 1235.95,530.03 1182,703.83 C1171.12,738.88 1154.6081,768.298 1133.5881,797.718" fill="none" id="CercaLibriController-to-Libro" style="stroke:#181818;stroke-width:1;"/><polygon fill="#181818" points="1130.1,802.6,1138.5867,797.6024,1133.0067,798.5317,1132.0775,792.9517,1130.1,802.6" style="stroke:#181818;stroke-width:1;"/><text fill="#000000" font-family="sans-serif" font-size="13" lengthAdjust="spacing" textLength="63.1211" x="1239" y="513.1669">visualizza</text></g><!--link CercaLibriController to CercaLibriService--><g class="link" data-entity-1="CercaLibriController" data-entity-2="CercaLibriService" data-source-line="119" data-uid="lnk24" id="link_CercaLibriController_CercaLibriService"><path codeLine="119" d="M1107.61,262.43 C1125.81,278.95 1141.8,297.9 1153,319.38 C1171.47,354.79 1176.54,646.57 1153,678.83 C1131.54,708.24 1110.75,696.95 1075,703.83 C1025.12,713.43 1010.09,698.79 961,711.83 C873.3,735.12 786.6304,776.4342 716.3404,814.9942" fill="none" id="CercaLibriController-to-CercaLibriService" style="stroke:#181818;stroke-width:1;"/><polygon fill="#181818" points="711.08,817.88,720.8945,817.0583,715.4637,815.4752,717.0468,810.0444,711.08,817.88" style="stroke:#181818;stroke-width:1;"/></g><!--link CercaLibriService to CercaLibriServiceImpl--><g class="link" data-entity-1="CercaLibriService" data-entity-2="CercaLibriServiceImpl" data-source-line="120" data-uid="lnk25" id="link_CercaLibriService_CercaLibriServiceImpl"><path codeLine="120" d="M572.48,964.32 C559.48,1014.95 546.5776,1065.2458 533.1276,1117.6158" fill="none" id="CercaLibriService-to-CercaLibriServiceImpl" style="stroke:#181818;stroke-width:1;stroke-dasharray:7,7;"/><polygon fill="none" points="528.65,1135.05,538.939,1119.1083,527.3162,1116.1233,528.65,1135.05" style="stroke:#181818;stroke-width:1;"/></g><!--SRC=[hLTVRnev47_dKrXz8hg43r15I8Ia5HLj4D1AzuGSxnIiUEsLxQK9T_tkD_Pwb_NkikHAf2ZWcV7C-3T_oIXxfbiW7vwKUjR0L9g2J42F17_I_0FvPq084zGOCWNDwDnHfqfQhOG0JJoVaB_8Nl64SCajfu8VOFXzEIT2CMgvajTa2KRbci5TBXC1H8UZkQhVLd85LBFTi46T2YG7uar1D5xmxdMMTDFNt0heParokrEwZpUHoTzrYtU8p1AHqGb9QUOGK6jL48R-H1nMoed_7WpmBpk5QMv1sWZKps2iqh02On0eAF6y8SOYTAp5vn8Paa6GMbdDvPQmN6lK_Ds0dYKdMTzeMjv3nn1KIRXnJtPEOQGW2RYViBq5Emlcgn05AyYQrds8GsYQt70hzwUsghdQRY6PIIVTqXGnQuhSwqhPu_DAwPQQwDt3yWAjKwChp2LXW29M9jIMo_X9r-ICOpjgVc2T94s59LyeMl8-QPMkrJCKGh_Fv1SNKNejgCR729X8dlfIhF9hIkMU6iByHw1zrZJRSMPSVSEB9LiM67Dkx6sfQqooyAsyLsbVynHxWdN_0sj9PQ9Ielr7LN82fR4DbA_LkPI8Lc0BXS1XccdhrDM9jBHpdsl_6TVAL0cboMAoNC-cyuVDz77-k6paUuOueQMLqzvW2NmZID1cOYrbkweOMX0E8-ZYl79w6wbcLHOYLqNb1uTVfjr4guUi63f2Ceq6zQi_DFZMHR_akqFChzA_QCVYzIjzuIbsvUICtATSY1NJ03Bk1CtcNZXWtF-h3ibK6Qlf7SWzI4p9uMcPkQ-Tq_o91hhGV4yjxP4wJgOUeNl0k6u5znsxwDlNPA4L-iX17kZvwc8AasVF3Q_FHewbedzI1hNvk0AzvmoEmp5qWs-Jhm-1uYlAEp4chBoeDWlG6vnTcCXbGx7-T4NiJgjV1WTfgYmyl338gWBerOPz3djugOtwqwNQDh2PI5cvM12hdkTOPosugOcTldYhF_fXZcWIdlovVwXYxZf5huvQ9HQEtDvgFyt7uofYGKiSlo8MCSqZoXiqH22c962OvWStHcE66pHRLD0WGy8TfZ4nqt0ug39DUn8LXyw-VuCB6JfBCt7iFXwC-ybZiSxWbs2-yzhmpuCK9VW5cV9EHV6-rN1zgTAGmhtvMmRqI_B4Zj5neUjAPGyXTlN2IEndtyTLCmOn-drFuVYIECpdfEEGl4tweGFtNe0NVllqy5RB-g3pXy-eyzVEpSsOTE_qe-Qo_15tFtgvRjpdHkqbpYidxwEzkOnqErvlAQDssdMfRupBKP56WxTvyNQ57t4TDOX6Wj1SYiWf2qZAtUPpeEzjeRqq3Fx_bT7etxQbA6ATBVm_]--></g></svg>