<svg xmlns="http://www.w3.org/2000/svg" xmlns:xlink="http://www.w3.org/1999/xlink" contentStyleType="text/css" data-diagram-type="CLASS" height="1515px" preserveAspectRatio="none" style="width:1708px;height:1515px;background:#FFFFFF;" version="1.1" viewBox="0 0 1708 1515" width="1708px" zoomAndPan="magnify"><defs/><g><!--cluster bookrecommender--><g class="cluster" data-entity="bookrecommender" data-source-line="3" data-uid="ent0004" id="cluster_bookrecommender"><path d="M8.5,6 L157.4434,6 A3.75,3.75 0 0 1 159.9434,8.5 L166.9434,28.2969 L1698.5,28.2969 A2.5,2.5 0 0 1 1701,30.7969 L1701,1505.61 A2.5,2.5 0 0 1 1698.5,1508.11 L8.5,1508.11 A2.5,2.5 0 0 1 6,1505.61 L6,8.5 A2.5,2.5 0 0 1 8.5,6" fill="none" style="stroke:#000000;stroke-width:1.5;"/><line style="stroke:#000000;stroke-width:1.5;" x1="6" x2="166.9434" y1="28.2969" y2="28.2969"/><text fill="#000000" font-family="sans-serif" font-size="14" font-weight="bold" lengthAdjust="spacing" textLength="147.9434" x="10" y="20.9951">bookrecommender</text></g><!--cluster condivisi--><g class="cluster" data-entity="condivisi" data-source-line="3" data-uid="ent0005" id="cluster_condivisi"><path d="M744.5,490.72 L815.2607,490.72 A3.75,3.75 0 0 1 817.7607,493.22 L824.7607,513.0169 L1674.5,513.0169 A2.5,2.5 0 0 1 1677,515.5169 L1677,1260.27 A2.5,2.5 0 0 1 1674.5,1262.77 L744.5,1262.77 A2.5,2.5 0 0 1 742,1260.27 L742,493.22 A2.5,2.5 0 0 1 744.5,490.72" fill="none" style="stroke:#000000;stroke-width:1.5;"/><line style="stroke:#000000;stroke-width:1.5;" x1="742" x2="824.7607" y1="513.0169" y2="513.0169"/><text fill="#000000" font-family="sans-serif" font-size="14" font-weight="bold" lengthAdjust="spacing" textLength="69.7607" x="746" y="505.7151">condivisi</text></g><!--cluster consigli--><g class="cluster" data-entity="consigli" data-source-line="2" data-uid="ent0002" id="cluster_consigli"><path d="M768.5,533.72 L830.1348,533.72 A3.75,3.75 0 0 1 832.6348,536.22 L839.6348,556.0169 L1650.5,556.0169 A2.5,2.5 0 0 1 1653,558.5169 L1653,1236.27 A2.5,2.5 0 0 1 1650.5,1238.77 L768.5,1238.77 A2.5,2.5 0 0 1 766,1236.27 L766,536.22 A2.5,2.5 0 0 1 768.5,533.72" fill="none" style="stroke:#000000;stroke-width:1.5;"/><line style="stroke:#000000;stroke-width:1.5;" x1="766" x2="839.6348" y1="556.0169" y2="556.0169"/><text fill="#000000" font-family="sans-serif" font-size="14" font-weight="bold" lengthAdjust="spacing" textLength="60.6348" x="770" y="548.7151">consigli</text></g><!--cluster server--><g class="cluster" data-entity="server" data-source-line="49" data-uid="ent0010" id="cluster_server"><path d="M32.5,49 L83.7578,49 A3.75,3.75 0 0 1 86.2578,51.5 L93.2578,71.2969 L715.5,71.2969 A2.5,2.5 0 0 1 718,73.7969 L718,1481.61 A2.5,2.5 0 0 1 715.5,1484.11 L32.5,1484.11 A2.5,2.5 0 0 1 30,1481.61 L30,51.5 A2.5,2.5 0 0 1 32.5,49" fill="none" style="stroke:#000000;stroke-width:1.5;"/><line style="stroke:#000000;stroke-width:1.5;" x1="30" x2="93.2578" y1="71.2969" y2="71.2969"/><text fill="#000000" font-family="sans-serif" font-size="14" font-weight="bold" lengthAdjust="spacing" textLength="50.2578" x="34" y="63.9951">server</text></g><!--cluster consigli--><g class="cluster" data-entity="consigli" data-source-line="48" data-uid="ent0008" id="cluster_consigli"><path d="M56.5,92 L118.1348,92 A3.75,3.75 0 0 1 120.6348,94.5 L127.6348,114.2969 L691.5,114.2969 A2.5,2.5 0 0 1 694,116.7969 L694,1309.61 A2.5,2.5 0 0 1 691.5,1312.11 L56.5,1312.11 A2.5,2.5 0 0 1 54,1309.61 L54,94.5 A2.5,2.5 0 0 1 56.5,92" fill="none" style="stroke:#000000;stroke-width:1.5;"/><line style="stroke:#000000;stroke-width:1.5;" x1="54" x2="127.6348" y1="114.2969" y2="114.2969"/><text fill="#000000" font-family="sans-serif" font-size="14" font-weight="bold" lengthAdjust="spacing" textLength="60.6348" x="58" y="106.9951">consigli</text></g><!--cluster utili--><g class="cluster" data-entity="utili" data-source-line="111" data-uid="ent0016" id="cluster_utili"><path d="M261.5,1361.11 L293.5557,1361.11 A3.75,3.75 0 0 1 296.0557,1363.61 L303.0557,1383.4069 L486.5,1383.4069 A2.5,2.5 0 0 1 489,1385.9069 L489,1457.61 A2.5,2.5 0 0 1 486.5,1460.11 L261.5,1460.11 A2.5,2.5 0 0 1 259,1457.61 L259,1363.61 A2.5,2.5 0 0 1 261.5,1361.11" fill="none" style="stroke:#000000;stroke-width:1.5;"/><line style="stroke:#000000;stroke-width:1.5;" x1="259" x2="303.0557" y1="1383.4069" y2="1383.4069"/><text fill="#000000" font-family="sans-serif" font-size="14" font-weight="bold" lengthAdjust="spacing" textLength="31.0557" x="263" y="1376.1051">utili</text></g><!--class Consiglio--><g class="entity" data-entity="Consiglio" data-source-line="3" data-uid="ent0003" id="entity_Consiglio"><rect fill="#F1F1F1" height="162.0781" rx="2.5" ry="2.5" style="stroke:#181818;stroke-width:0.5;" width="300.1689" x="781.92" y="625.76"/><ellipse cx="895.94" cy="641.76" fill="#FF8F00" rx="11" ry="11" style="stroke:#181818;stroke-width:1;"/><path d="M897.1431,641.9006 Q897.5025,641.9787 897.7681,642.26 Q898.0494,642.5256 898.44,643.3069 L900.6744,647.76 L897.9869,647.76 L896.4869,644.635 Q896.4244,644.4944 896.315,644.26 Q895.6588,642.8694 894.7681,642.8694 L893.9869,642.8694 L893.9869,647.76 L891.5494,647.76 L891.5494,635.3694 L895.0806,635.3694 Q897.4713,635.3694 898.5025,636.2131 Q899.5494,637.0569 899.5494,638.9631 Q899.5494,640.2444 898.9244,641.01 Q898.315,641.76 897.1431,641.9006 Z M893.9869,637.4319 L893.9869,640.8069 L895.1431,640.8069 Q896.1588,640.8069 896.5806,640.4162 Q897.0181,640.01 897.0181,639.1037 Q897.0181,638.2131 896.5806,637.8225 Q896.1588,637.4319 895.1431,637.4319 L893.9869,637.4319 Z " fill="#000000"/><text fill="#000000" font-family="sans-serif" font-size="14" lengthAdjust="spacing" textLength="63.6289" x="916.44" y="646.6067">Consiglio</text><line style="stroke:#181818;stroke-width:0.5;" x1="782.92" x2="1081.0889" y1="657.76" y2="657.76"/><ellipse cx="792.92" cy="671.4084" fill="none" rx="3" ry="3" style="stroke:#038048;stroke-width:1;"/><text fill="#000000" font-family="sans-serif" font-size="14" lengthAdjust="spacing" textLength="89.7832" x="801.92" y="674.7551">String userId</text><ellipse cx="792.92" cy="687.7053" fill="none" rx="3" ry="3" style="stroke:#038048;stroke-width:1;"/><text fill="#000000" font-family="sans-serif" font-size="14" lengthAdjust="spacing" textLength="84.9775" x="801.92" y="691.052">int libreriaId</text><ellipse cx="792.92" cy="704.0022" fill="none" rx="3" ry="3" style="stroke:#038048;stroke-width:1;"/><text fill="#000000" font-family="sans-serif" font-size="14" lengthAdjust="spacing" textLength="114.625" x="801.92" y="707.3489">long libroLettoId</text><ellipse cx="792.92" cy="720.2991" fill="none" rx="3" ry="3" style="stroke:#038048;stroke-width:1;"/><text fill="#000000" font-family="sans-serif" font-size="14" lengthAdjust="spacing" textLength="156.3652" x="801.92" y="723.6457">long libroConsigliatoId</text><ellipse cx="792.92" cy="736.5959" fill="none" rx="3" ry="3" style="stroke:#038048;stroke-width:1;"/><text fill="#000000" font-family="sans-serif" font-size="14" lengthAdjust="spacing" textLength="121.3105" x="801.92" y="739.9426">String commento</text><ellipse cx="792.92" cy="752.8928" fill="none" rx="3" ry="3" style="stroke:#038048;stroke-width:1;"/><text fill="#000000" font-family="sans-serif" font-size="14" lengthAdjust="spacing" textLength="204.2988" x="801.92" y="756.2395">LocalDateTime dataConsiglio</text><line style="stroke:#181818;stroke-width:0.5;" x1="782.92" x2="1081.0889" y1="763.5412" y2="763.5412"/><ellipse cx="792.92" cy="777.1897" fill="#84BE84" rx="3" ry="3" style="stroke:#038048;stroke-width:1;"/><text fill="#000000" font-family="sans-serif" font-size="14" lengthAdjust="spacing" textLength="274.1689" x="801.92" y="780.5364">Consiglio(userId, int, long, long, String)</text></g><!--class ConsiglioDettagliato--><g class="entity" data-entity="ConsiglioDettagliato" data-source-line="13" data-uid="ent0006" id="entity_ConsiglioDettagliato"><rect fill="#F1F1F1" height="243.5625" rx="2.5" ry="2.5" style="stroke:#181818;stroke-width:0.5;" width="230.7021" x="816.65" y="979.21"/><ellipse cx="857.22" cy="995.21" fill="#FF8F00" rx="11" ry="11" style="stroke:#181818;stroke-width:1;"/><path d="M858.4231,995.3506 Q858.7825,995.4287 859.0481,995.71 Q859.3294,995.9756 859.72,996.7569 L861.9544,1001.21 L859.2669,1001.21 L857.7669,998.085 Q857.7044,997.9444 857.595,997.71 Q856.9388,996.3194 856.0481,996.3194 L855.2669,996.3194 L855.2669,1001.21 L852.8294,1001.21 L852.8294,988.8194 L856.3606,988.8194 Q858.7513,988.8194 859.7825,989.6631 Q860.8294,990.5069 860.8294,992.4131 Q860.8294,993.6944 860.2044,994.46 Q859.595,995.21 858.4231,995.3506 Z M855.2669,990.8819 L855.2669,994.2569 L856.4231,994.2569 Q857.4388,994.2569 857.8606,993.8662 Q858.2981,993.46 858.2981,992.5537 Q858.2981,991.6631 857.8606,991.2725 Q857.4388,990.8819 856.4231,990.8819 L855.2669,990.8819 Z " fill="#000000"/><text fill="#000000" font-family="sans-serif" font-size="14" lengthAdjust="spacing" textLength="141.8799" x="876.9022" y="1000.0567">ConsiglioDettagliato</text><line style="stroke:#181818;stroke-width:0.5;" x1="817.65" x2="1046.3521" y1="1011.21" y2="1011.21"/><ellipse cx="827.65" cy="1024.8584" fill="none" rx="3" ry="3" style="stroke:#038048;stroke-width:1;"/><text fill="#000000" font-family="sans-serif" font-size="14" lengthAdjust="spacing" textLength="89.7832" x="836.65" y="1028.2051">String userId</text><ellipse cx="827.65" cy="1041.1553" fill="none" rx="3" ry="3" style="stroke:#038048;stroke-width:1;"/><text fill="#000000" font-family="sans-serif" font-size="14" lengthAdjust="spacing" textLength="84.9775" x="836.65" y="1044.502">int libreriaId</text><ellipse cx="827.65" cy="1057.4522" fill="none" rx="3" ry="3" style="stroke:#038048;stroke-width:1;"/><text fill="#000000" font-family="sans-serif" font-size="14" lengthAdjust="spacing" textLength="139.0908" x="836.65" y="1060.7989">String nomeLibreria</text><ellipse cx="827.65" cy="1073.7491" fill="none" rx="3" ry="3" style="stroke:#038048;stroke-width:1;"/><text fill="#000000" font-family="sans-serif" font-size="14" lengthAdjust="spacing" textLength="114.625" x="836.65" y="1077.0957">long libroLettoId</text><ellipse cx="827.65" cy="1090.0459" fill="none" rx="3" ry="3" style="stroke:#038048;stroke-width:1;"/><text fill="#000000" font-family="sans-serif" font-size="14" lengthAdjust="spacing" textLength="152.9746" x="836.65" y="1093.3926">String titoloLibroLetto</text><ellipse cx="827.65" cy="1106.3428" fill="none" rx="3" ry="3" style="stroke:#038048;stroke-width:1;"/><text fill="#000000" font-family="sans-serif" font-size="14" lengthAdjust="spacing" textLength="162.9619" x="836.65" y="1109.6895">String autoreLibroLetto</text><ellipse cx="827.65" cy="1122.6397" fill="none" rx="3" ry="3" style="stroke:#038048;stroke-width:1;"/><text fill="#000000" font-family="sans-serif" font-size="14" lengthAdjust="spacing" textLength="156.3652" x="836.65" y="1125.9864">long libroConsigliatoId</text><ellipse cx="827.65" cy="1138.9366" fill="none" rx="3" ry="3" style="stroke:#038048;stroke-width:1;"/><text fill="#000000" font-family="sans-serif" font-size="14" lengthAdjust="spacing" textLength="194.7148" x="836.65" y="1142.2832">String titoloLibroConsigliato</text><ellipse cx="827.65" cy="1155.2334" fill="none" rx="3" ry="3" style="stroke:#038048;stroke-width:1;"/><text fill="#000000" font-family="sans-serif" font-size="14" lengthAdjust="spacing" textLength="204.7021" x="836.65" y="1158.5801">String autoreLibroConsigliato</text><ellipse cx="827.65" cy="1171.5303" fill="none" rx="3" ry="3" style="stroke:#038048;stroke-width:1;"/><text fill="#000000" font-family="sans-serif" font-size="14" lengthAdjust="spacing" textLength="121.3105" x="836.65" y="1174.877">String commento</text><ellipse cx="827.65" cy="1187.8272" fill="none" rx="3" ry="3" style="stroke:#038048;stroke-width:1;"/><text fill="#000000" font-family="sans-serif" font-size="14" lengthAdjust="spacing" textLength="204.2988" x="836.65" y="1191.1739">LocalDateTime dataConsiglio</text><line style="stroke:#181818;stroke-width:0.5;" x1="817.65" x2="1046.3521" y1="1198.4756" y2="1198.4756"/><ellipse cx="827.65" cy="1212.1241" fill="#84BE84" rx="3" ry="3" style="stroke:#038048;stroke-width:1;"/><text fill="#000000" font-family="sans-serif" font-size="14" lengthAdjust="spacing" textLength="156.6865" x="836.65" y="1215.4707">Consiglio toConsiglio()</text></g><!--class ConsigliService--><g class="entity" data-entity="ConsigliService" data-source-line="28" data-uid="ent0007" id="entity_ConsigliService"><rect fill="#F1F1F1" height="276.1563" rx="2.5" ry="2.5" style="stroke:#181818;stroke-width:0.5;" width="519.9717" x="1117.01" y="568.72"/><ellipse cx="1319.3435" cy="584.72" fill="#B4A7E5" rx="11" ry="11" style="stroke:#181818;stroke-width:1;"/><path d="M1315.2654,580.4856 L1315.2654,578.3294 L1322.656,578.3294 L1322.656,580.4856 L1320.1872,580.4856 L1320.1872,588.5637 L1322.656,588.5637 L1322.656,590.72 L1315.2654,590.72 L1315.2654,588.5637 L1317.7341,588.5637 L1317.7341,580.4856 L1315.2654,580.4856 Z " fill="#000000"/><text fill="#000000" font-family="sans-serif" font-size="14" font-style="italic" lengthAdjust="spacing" textLength="106.8047" x="1339.8435" y="589.5667">ConsigliService</text><line style="stroke:#181818;stroke-width:0.5;" x1="1118.01" x2="1635.9817" y1="600.72" y2="600.72"/><ellipse cx="1128.01" cy="614.3684" fill="none" rx="3" ry="3" style="stroke:#038048;stroke-width:1;"/><text fill="#000000" font-family="sans-serif" font-size="14" lengthAdjust="spacing" textLength="87.2061" x="1137.01" y="617.7151">String NAME</text><text fill="#000000" font-family="sans-serif" font-size="14" lengthAdjust="spacing" textLength="212.9531" x="1137.01" y="634.012">int libreriaId, long libroLettoId,</text><line style="stroke:#181818;stroke-width:0.5;" x1="1118.01" x2="1635.9817" y1="641.3137" y2="641.3137"/><ellipse cx="1128.01" cy="654.9622" fill="#84BE84" rx="3" ry="3" style="stroke:#038048;stroke-width:1;"/><text fill="#000000" font-family="sans-serif" font-size="14" lengthAdjust="spacing" textLength="258.166" x="1137.01" y="658.3089">void aggiungiConsiglio(String userId,</text><text fill="#000000" font-family="sans-serif" font-size="14" lengthAdjust="spacing" textLength="292.0381" x="1137.01" y="674.6057">long libroConsigliatoId, String commento)</text><ellipse cx="1128.01" cy="687.5559" fill="#84BE84" rx="3" ry="3" style="stroke:#038048;stroke-width:1;"/><text fill="#000000" font-family="sans-serif" font-size="14" lengthAdjust="spacing" textLength="402.7188" x="1137.01" y="690.9026">List&lt;Libro&gt; getConsigliati(int libreriaId, long libroLettoId)</text><ellipse cx="1128.01" cy="703.8528" fill="#84BE84" rx="3" ry="3" style="stroke:#038048;stroke-width:1;"/><text fill="#000000" font-family="sans-serif" font-size="14" lengthAdjust="spacing" textLength="454.6377" x="1137.01" y="707.1995">List&lt;LibroConsigliato&gt; getConsigliatiConConteggio(int libreriaId,</text><text fill="#000000" font-family="sans-serif" font-size="14" lengthAdjust="spacing" textLength="120.0869" x="1137.01" y="723.4964">long libroLettoId)</text><ellipse cx="1128.01" cy="736.4466" fill="#84BE84" rx="3" ry="3" style="stroke:#038048;stroke-width:1;"/><text fill="#000000" font-family="sans-serif" font-size="14" lengthAdjust="spacing" textLength="485.2969" x="1137.01" y="739.7932">List&lt;LibroConsigliato&gt; getConsigliatiConConteggio(long libroLettoId)</text><ellipse cx="1128.01" cy="752.7434" fill="#84BE84" rx="3" ry="3" style="stroke:#038048;stroke-width:1;"/><text fill="#000000" font-family="sans-serif" font-size="14" lengthAdjust="spacing" textLength="342.1455" x="1137.01" y="756.0901">List&lt;Consiglio&gt; listConsigliByUser(String userId)</text><ellipse cx="1128.01" cy="769.0403" fill="#84BE84" rx="3" ry="3" style="stroke:#038048;stroke-width:1;"/><text fill="#000000" font-family="sans-serif" font-size="14" lengthAdjust="spacing" textLength="477.6611" x="1137.01" y="772.387">void updateCommento(String userId, int libreriaId, long libroLettoId,</text><text fill="#000000" font-family="sans-serif" font-size="14" lengthAdjust="spacing" textLength="292.0381" x="1137.01" y="788.6839">long libroConsigliatoId, String commento)</text><ellipse cx="1128.01" cy="801.6341" fill="#84BE84" rx="3" ry="3" style="stroke:#038048;stroke-width:1;"/><text fill="#000000" font-family="sans-serif" font-size="14" lengthAdjust="spacing" textLength="458.9102" x="1137.01" y="804.9807">void deleteConsiglio(String userId, int libreriaId, long libroLettoId,</text><text fill="#000000" font-family="sans-serif" font-size="14" lengthAdjust="spacing" textLength="161.8271" x="1137.01" y="821.2776">long libroConsigliatoId)</text><ellipse cx="1128.01" cy="834.2278" fill="#84BE84" rx="3" ry="3" style="stroke:#038048;stroke-width:1;"/><text fill="#000000" font-family="sans-serif" font-size="14" lengthAdjust="spacing" textLength="493.9717" x="1137.01" y="837.5745">List&lt;ConsiglioDettagliato&gt; listConsigliDettagliatiByUser(String userId)</text></g><!--class ConsigliDAO--><g class="entity" data-entity="ConsigliDAO" data-source-line="49" data-uid="ent0009" id="entity_ConsigliDAO"><rect fill="#F1F1F1" height="243.5625" rx="2.5" ry="2.5" style="stroke:#181818;stroke-width:0.5;" width="608.7637" x="69.62" y="585.02"/><ellipse cx="326.5316" cy="601.02" fill="#B4A7E5" rx="11" ry="11" style="stroke:#181818;stroke-width:1;"/><path d="M322.4535,596.7856 L322.4535,594.6294 L329.8441,594.6294 L329.8441,596.7856 L327.3754,596.7856 L327.3754,604.8637 L329.8441,604.8637 L329.8441,607.02 L322.4535,607.02 L322.4535,604.8637 L324.9222,604.8637 L324.9222,596.7856 L322.4535,596.7856 Z " fill="#000000"/><text fill="#000000" font-family="sans-serif" font-size="14" font-style="italic" lengthAdjust="spacing" textLength="86.4404" x="347.0316" y="605.8667">ConsigliDAO</text><line style="stroke:#181818;stroke-width:0.5;" x1="70.62" x2="677.3837" y1="617.02" y2="617.02"/><line style="stroke:#181818;stroke-width:0.5;" x1="70.62" x2="677.3837" y1="625.02" y2="625.02"/><ellipse cx="80.62" cy="638.6684" fill="#84BE84" rx="3" ry="3" style="stroke:#038048;stroke-width:1;"/><text fill="#000000" font-family="sans-serif" font-size="14" lengthAdjust="spacing" textLength="254.0029" x="89.62" y="642.0151">void add(String userId, int libreriaId,</text><text fill="#000000" font-family="sans-serif" font-size="14" lengthAdjust="spacing" textLength="415.5635" x="89.62" y="658.312">long libroLettoId, long libroConsigliatoId, String commento)</text><ellipse cx="80.62" cy="671.2622" fill="#84BE84" rx="3" ry="3" style="stroke:#038048;stroke-width:1;"/><text fill="#000000" font-family="sans-serif" font-size="14" lengthAdjust="spacing" textLength="406.3076" x="89.62" y="674.6089">List&lt;Libro&gt; findConsigliati(int libreriaId, long libroLettoId)</text><ellipse cx="80.62" cy="687.5591" fill="#84BE84" rx="3" ry="3" style="stroke:#038048;stroke-width:1;"/><text fill="#000000" font-family="sans-serif" font-size="14" lengthAdjust="spacing" textLength="370.2344" x="89.62" y="690.9057">int countConsigliDati(String userId, long libroLettoId)</text><ellipse cx="80.62" cy="703.8559" fill="#84BE84" rx="3" ry="3" style="stroke:#038048;stroke-width:1;"/><text fill="#000000" font-family="sans-serif" font-size="14" lengthAdjust="spacing" textLength="582.7637" x="89.62" y="707.2026">List&lt;LibroConsigliato&gt; findConsigliatiConConteggio(int libreriaId, long libroLettoId)</text><ellipse cx="80.62" cy="720.1528" fill="#84BE84" rx="3" ry="3" style="stroke:#038048;stroke-width:1;"/><text fill="#000000" font-family="sans-serif" font-size="14" lengthAdjust="spacing" textLength="488.8857" x="89.62" y="723.4995">List&lt;LibroConsigliato&gt; findConsigliatiConConteggio(long libroLettoId)</text><ellipse cx="80.62" cy="736.4497" fill="#84BE84" rx="3" ry="3" style="stroke:#038048;stroke-width:1;"/><text fill="#000000" font-family="sans-serif" font-size="14" lengthAdjust="spacing" textLength="293.0977" x="89.62" y="739.7964">List&lt;Consiglio&gt; findByUser(String userId)</text><ellipse cx="80.62" cy="752.7466" fill="#84BE84" rx="3" ry="3" style="stroke:#038048;stroke-width:1;"/><text fill="#000000" font-family="sans-serif" font-size="14" lengthAdjust="spacing" textLength="354.1357" x="89.62" y="756.0932">void updateCommento(String userId, int libreriaId,</text><text fill="#000000" font-family="sans-serif" font-size="14" lengthAdjust="spacing" textLength="415.5635" x="89.62" y="772.3901">long libroLettoId, long libroConsigliatoId, String commento)</text><ellipse cx="80.62" cy="785.3403" fill="#84BE84" rx="3" ry="3" style="stroke:#038048;stroke-width:1;"/><text fill="#000000" font-family="sans-serif" font-size="14" lengthAdjust="spacing" textLength="271.7559" x="89.62" y="788.687">void delete(String userId, int libreriaId,</text><text fill="#000000" font-family="sans-serif" font-size="14" lengthAdjust="spacing" textLength="285.3525" x="89.62" y="804.9839">long libroLettoId, long libroConsigliatoId)</text><ellipse cx="80.62" cy="817.9341" fill="#84BE84" rx="3" ry="3" style="stroke:#038048;stroke-width:1;"/><text fill="#000000" font-family="sans-serif" font-size="14" lengthAdjust="spacing" textLength="444.9238" x="89.62" y="821.2807">List&lt;ConsiglioDettagliato&gt; findDettagliatiByUser(String userId)</text></g><!--class JdbcConsigliDAO--><g class="entity" data-entity="JdbcConsigliDAO" data-source-line="64" data-uid="ent0011" id="entity_JdbcConsigliDAO"><rect fill="#F1F1F1" height="390.2344" rx="2.5" ry="2.5" style="stroke:#181818;stroke-width:0.5;" width="608.7637" x="69.62" y="905.88"/><ellipse cx="311.7318" cy="921.88" fill="#ADD1B2" rx="11" ry="11" style="stroke:#181818;stroke-width:1;"/><path d="M314.7006,927.5206 Q314.1224,927.8175 313.4818,927.9581 Q312.8412,928.1144 312.1381,928.1144 Q309.6381,928.1144 308.3099,926.4737 Q306.9974,924.8175 306.9974,921.6925 Q306.9974,918.5675 308.3099,916.9112 Q309.6381,915.255 312.1381,915.255 Q312.8412,915.255 313.4818,915.4112 Q314.1381,915.5675 314.7006,915.8644 L314.7006,918.5831 Q314.0756,918.005 313.4818,917.7394 Q312.8881,917.4581 312.2631,917.4581 Q310.9193,917.4581 310.2318,918.5362 Q309.5443,919.5987 309.5443,921.6925 Q309.5443,923.7862 310.2318,924.8644 Q310.9193,925.9269 312.2631,925.9269 Q312.8881,925.9269 313.4818,925.6612 Q314.0756,925.38 314.7006,924.8019 L314.7006,927.5206 Z " fill="#000000"/><text fill="#000000" font-family="sans-serif" font-size="14" lengthAdjust="spacing" textLength="116.04" x="332.2318" y="926.7267">JdbcConsigliDAO</text><line style="stroke:#181818;stroke-width:0.5;" x1="70.62" x2="677.3837" y1="937.88" y2="937.88"/><rect fill="none" height="6" style="stroke:#C82930;stroke-width:1;" width="6" x="77.62" y="948.5284"/><text fill="#000000" font-family="sans-serif" font-size="14" lengthAdjust="spacing" textLength="239.9482" x="89.62" y="954.8751">static final String ADD_CONSIGLIO</text><rect fill="none" height="6" style="stroke:#C82930;stroke-width:1;" width="6" x="77.62" y="964.8253"/><text fill="#000000" font-family="sans-serif" font-size="14" lengthAdjust="spacing" textLength="247.8574" x="89.62" y="971.172">static final String COUNT_CONSIGLI</text><rect fill="none" height="6" style="stroke:#C82930;stroke-width:1;" width="6" x="77.62" y="981.1222"/><text fill="#000000" font-family="sans-serif" font-size="14" lengthAdjust="spacing" textLength="253.4834" x="89.62" y="987.4689">static final String FIND_CONSIGLIATI</text><rect fill="none" height="6" style="stroke:#C82930;stroke-width:1;" width="6" x="77.62" y="997.4191"/><text fill="#000000" font-family="sans-serif" font-size="14" lengthAdjust="spacing" textLength="384.2617" x="89.62" y="1003.7657">static final String FIND_CONSIGLIATI_CON_CONTEGGIO</text><rect fill="none" height="6" style="stroke:#C82930;stroke-width:1;" width="6" x="77.62" y="1013.7159"/><text fill="#000000" font-family="sans-serif" font-size="14" lengthAdjust="spacing" textLength="416.4385" x="89.62" y="1020.0626">static final String FIND_CONSIGLIATI_CON_CONTEGGIO_ALL</text><rect fill="none" height="6" style="stroke:#C82930;stroke-width:1;" width="6" x="77.62" y="1030.0128"/><text fill="#000000" font-family="sans-serif" font-size="14" lengthAdjust="spacing" textLength="227.0283" x="89.62" y="1036.3595">static final String FIND_BY_USER</text><rect fill="none" height="6" style="stroke:#C82930;stroke-width:1;" width="6" x="77.62" y="1046.3097"/><text fill="#000000" font-family="sans-serif" font-size="14" lengthAdjust="spacing" textLength="271.0176" x="89.62" y="1052.6564">static final String UPDATE_COMMENTO</text><rect fill="none" height="6" style="stroke:#C82930;stroke-width:1;" width="6" x="77.62" y="1062.6066"/><text fill="#000000" font-family="sans-serif" font-size="14" lengthAdjust="spacing" textLength="262.4795" x="89.62" y="1068.9532">static final String DELETE_CONSIGLIO</text><rect fill="none" height="6" style="stroke:#C82930;stroke-width:1;" width="6" x="77.62" y="1078.9034"/><text fill="#000000" font-family="sans-serif" font-size="14" lengthAdjust="spacing" textLength="325.3701" x="89.62" y="1085.2501">static final String FIND_DETTAGLIATI_BY_USER</text><line style="stroke:#181818;stroke-width:0.5;" x1="70.62" x2="677.3837" y1="1092.5519" y2="1092.5519"/><ellipse cx="80.62" cy="1106.2003" fill="#84BE84" rx="3" ry="3" style="stroke:#038048;stroke-width:1;"/><text fill="#000000" font-family="sans-serif" font-size="14" lengthAdjust="spacing" textLength="254.0029" x="89.62" y="1109.547">void add(String userId, int libreriaId,</text><text fill="#000000" font-family="sans-serif" font-size="14" lengthAdjust="spacing" textLength="415.5635" x="89.62" y="1125.8439">long libroLettoId, long libroConsigliatoId, String commento)</text><ellipse cx="80.62" cy="1138.7941" fill="#84BE84" rx="3" ry="3" style="stroke:#038048;stroke-width:1;"/><text fill="#000000" font-family="sans-serif" font-size="14" lengthAdjust="spacing" textLength="370.2344" x="89.62" y="1142.1407">int countConsigliDati(String userId, long libroLettoId)</text><ellipse cx="80.62" cy="1155.0909" fill="#84BE84" rx="3" ry="3" style="stroke:#038048;stroke-width:1;"/><text fill="#000000" font-family="sans-serif" font-size="14" lengthAdjust="spacing" textLength="406.3076" x="89.62" y="1158.4376">List&lt;Libro&gt; findConsigliati(int libreriaId, long libroLettoId)</text><ellipse cx="80.62" cy="1171.3878" fill="#84BE84" rx="3" ry="3" style="stroke:#038048;stroke-width:1;"/><text fill="#000000" font-family="sans-serif" font-size="14" lengthAdjust="spacing" textLength="582.7637" x="89.62" y="1174.7345">List&lt;LibroConsigliato&gt; findConsigliatiConConteggio(int libreriaId, long libroLettoId)</text><ellipse cx="80.62" cy="1187.6847" fill="#84BE84" rx="3" ry="3" style="stroke:#038048;stroke-width:1;"/><text fill="#000000" font-family="sans-serif" font-size="14" lengthAdjust="spacing" textLength="488.8857" x="89.62" y="1191.0314">List&lt;LibroConsigliato&gt; findConsigliatiConConteggio(long libroLettoId)</text><ellipse cx="80.62" cy="1203.9816" fill="#84BE84" rx="3" ry="3" style="stroke:#038048;stroke-width:1;"/><text fill="#000000" font-family="sans-serif" font-size="14" lengthAdjust="spacing" textLength="293.0977" x="89.62" y="1207.3282">List&lt;Consiglio&gt; findByUser(String userId)</text><ellipse cx="80.62" cy="1220.2784" fill="#84BE84" rx="3" ry="3" style="stroke:#038048;stroke-width:1;"/><text fill="#000000" font-family="sans-serif" font-size="14" lengthAdjust="spacing" textLength="354.1357" x="89.62" y="1223.6251">void updateCommento(String userId, int libreriaId,</text><text fill="#000000" font-family="sans-serif" font-size="14" lengthAdjust="spacing" textLength="415.5635" x="89.62" y="1239.922">long libroLettoId, long libroConsigliatoId, String commento)</text><ellipse cx="80.62" cy="1252.8722" fill="#84BE84" rx="3" ry="3" style="stroke:#038048;stroke-width:1;"/><text fill="#000000" font-family="sans-serif" font-size="14" lengthAdjust="spacing" textLength="271.7559" x="89.62" y="1256.2189">void delete(String userId, int libreriaId,</text><text fill="#000000" font-family="sans-serif" font-size="14" lengthAdjust="spacing" textLength="285.3525" x="89.62" y="1272.5157">long libroLettoId, long libroConsigliatoId)</text><ellipse cx="80.62" cy="1285.4659" fill="#84BE84" rx="3" ry="3" style="stroke:#038048;stroke-width:1;"/><text fill="#000000" font-family="sans-serif" font-size="14" lengthAdjust="spacing" textLength="444.9238" x="89.62" y="1288.8126">List&lt;ConsiglioDettagliato&gt; findDettagliatiByUser(String userId)</text></g><!--class ConsigliServiceImpl--><g class="entity" data-entity="ConsigliServiceImpl" data-source-line="89" data-uid="ent0012" id="entity_ConsigliServiceImpl"><rect fill="#F1F1F1" height="300.7188" rx="2.5" ry="2.5" style="stroke:#181818;stroke-width:0.5;" width="605.1748" x="72.41" y="127"/><ellipse cx="302.0736" cy="147.1328" fill="#ADD1B2" rx="11" ry="11" style="stroke:#181818;stroke-width:1;"/><path d="M305.0423,152.7734 Q304.4642,153.0703 303.8236,153.2109 Q303.1829,153.3672 302.4798,153.3672 Q299.9798,153.3672 298.6517,151.7266 Q297.3392,150.0703 297.3392,146.9453 Q297.3392,143.8203 298.6517,142.1641 Q299.9798,140.5078 302.4798,140.5078 Q303.1829,140.5078 303.8236,140.6641 Q304.4798,140.8203 305.0423,141.1172 L305.0423,143.8359 Q304.4173,143.2578 303.8236,142.9922 Q303.2298,142.7109 302.6048,142.7109 Q301.2611,142.7109 300.5736,143.7891 Q299.8861,144.8516 299.8861,146.9453 Q299.8861,149.0391 300.5736,150.1172 Q301.2611,151.1797 302.6048,151.1797 Q303.2298,151.1797 303.8236,150.9141 Q304.4173,150.6328 305.0423,150.0547 L305.0423,152.7734 Z " fill="#000000"/><text fill="#000000" font-family="sans-serif" font-size="12" font-style="italic" lengthAdjust="spacing" textLength="57.668" x="362.4134" y="143.1387">&#171;service&#187;</text><text fill="#000000" font-family="sans-serif" font-size="14" lengthAdjust="spacing" textLength="137.3477" x="322.5736" y="158.9639">ConsigliServiceImpl</text><line style="stroke:#181818;stroke-width:0.5;" x1="73.41" x2="676.5848" y1="167.2656" y2="167.2656"/><rect fill="none" height="6" style="stroke:#C82930;stroke-width:1;" width="6" x="80.41" y="177.9141"/><text fill="#000000" font-family="sans-serif" font-size="14" lengthAdjust="spacing" textLength="205.5088" x="92.41" y="184.2607">static final int MAX_CONSIGLI</text><rect fill="none" height="6" style="stroke:#C82930;stroke-width:1;" width="6" x="80.41" y="194.2109"/><text fill="#000000" font-family="sans-serif" font-size="14" lengthAdjust="spacing" textLength="209.8633" x="92.41" y="200.5576">final ConsigliDAO consigliDAO</text><line style="stroke:#181818;stroke-width:0.5;" x1="73.41" x2="676.5848" y1="207.8594" y2="207.8594"/><ellipse cx="83.41" cy="221.5078" fill="#84BE84" rx="3" ry="3" style="stroke:#038048;stroke-width:1;"/><text fill="#000000" font-family="sans-serif" font-size="14" lengthAdjust="spacing" textLength="148.2715" x="92.41" y="224.8545">ConsigliServiceImpl()</text><ellipse cx="83.41" cy="237.8047" fill="#84BE84" rx="3" ry="3" style="stroke:#038048;stroke-width:1;"/><text fill="#000000" font-family="sans-serif" font-size="14" lengthAdjust="spacing" textLength="352.0439" x="92.41" y="241.1514">void aggiungiConsiglio(String userId, int libreriaId,</text><text fill="#000000" font-family="sans-serif" font-size="14" lengthAdjust="spacing" textLength="415.5635" x="92.41" y="257.4482">long libroLettoId, long libroConsigliatoId, String commento)</text><ellipse cx="83.41" cy="270.3984" fill="#84BE84" rx="3" ry="3" style="stroke:#038048;stroke-width:1;"/><text fill="#000000" font-family="sans-serif" font-size="14" lengthAdjust="spacing" textLength="402.7188" x="92.41" y="273.7451">List&lt;Libro&gt; getConsigliati(int libreriaId, long libroLettoId)</text><ellipse cx="83.41" cy="286.6953" fill="#84BE84" rx="3" ry="3" style="stroke:#038048;stroke-width:1;"/><text fill="#000000" font-family="sans-serif" font-size="14" lengthAdjust="spacing" textLength="579.1748" x="92.41" y="290.042">List&lt;LibroConsigliato&gt; getConsigliatiConConteggio(int libreriaId, long libroLettoId)</text><ellipse cx="83.41" cy="302.9922" fill="#84BE84" rx="3" ry="3" style="stroke:#038048;stroke-width:1;"/><text fill="#000000" font-family="sans-serif" font-size="14" lengthAdjust="spacing" textLength="409.6436" x="92.41" y="306.3389">int getNumeroConsigliDati(String userId, long libroLettoId)</text><ellipse cx="83.41" cy="319.2891" fill="#84BE84" rx="3" ry="3" style="stroke:#038048;stroke-width:1;"/><text fill="#000000" font-family="sans-serif" font-size="14" lengthAdjust="spacing" textLength="485.2969" x="92.41" y="322.6357">List&lt;LibroConsigliato&gt; getConsigliatiConConteggio(long libroLettoId)</text><ellipse cx="83.41" cy="335.5859" fill="#84BE84" rx="3" ry="3" style="stroke:#038048;stroke-width:1;"/><text fill="#000000" font-family="sans-serif" font-size="14" lengthAdjust="spacing" textLength="342.1455" x="92.41" y="338.9326">List&lt;Consiglio&gt; listConsigliByUser(String userId)</text><ellipse cx="83.41" cy="351.8828" fill="#84BE84" rx="3" ry="3" style="stroke:#038048;stroke-width:1;"/><text fill="#000000" font-family="sans-serif" font-size="14" lengthAdjust="spacing" textLength="354.1357" x="92.41" y="355.2295">void updateCommento(String userId, int libreriaId,</text><text fill="#000000" font-family="sans-serif" font-size="14" lengthAdjust="spacing" textLength="415.5635" x="92.41" y="371.5264">long libroLettoId, long libroConsigliatoId, String commento)</text><ellipse cx="83.41" cy="384.4766" fill="#84BE84" rx="3" ry="3" style="stroke:#038048;stroke-width:1;"/><text fill="#000000" font-family="sans-serif" font-size="14" lengthAdjust="spacing" textLength="335.3848" x="92.41" y="387.8232">void deleteConsiglio(String userId, int libreriaId,</text><text fill="#000000" font-family="sans-serif" font-size="14" lengthAdjust="spacing" textLength="285.3525" x="92.41" y="404.1201">long libroLettoId, long libroConsigliatoId)</text><ellipse cx="83.41" cy="417.0703" fill="#84BE84" rx="3" ry="3" style="stroke:#038048;stroke-width:1;"/><text fill="#000000" font-family="sans-serif" font-size="14" lengthAdjust="spacing" textLength="493.9717" x="92.41" y="420.417">List&lt;ConsiglioDettagliato&gt; listConsigliDettagliatiByUser(String userId)</text></g><!--class DBConnectionSingleton--><g class="entity" data-entity="DBConnectionSingleton" data-source-line="111" data-uid="ent0015" id="entity_DBConnectionSingleton"><rect fill="#F1F1F1" height="48" rx="2.5" ry="2.5" style="stroke:#181818;stroke-width:0.5;" width="197.5664" x="275.22" y="1396.11"/><ellipse cx="290.22" cy="1412.11" fill="#ADD1B2" rx="11" ry="11" style="stroke:#181818;stroke-width:1;"/><path d="M293.1888,1417.7506 Q292.6106,1418.0475 291.97,1418.1881 Q291.3294,1418.3444 290.6263,1418.3444 Q288.1263,1418.3444 286.7981,1416.7038 Q285.4856,1415.0475 285.4856,1411.9225 Q285.4856,1408.7975 286.7981,1407.1413 Q288.1263,1405.485 290.6263,1405.485 Q291.3294,1405.485 291.97,1405.6413 Q292.6263,1405.7975 293.1888,1406.0944 L293.1888,1408.8131 Q292.5638,1408.235 291.97,1407.9694 Q291.3763,1407.6881 290.7513,1407.6881 Q289.4075,1407.6881 288.72,1408.7663 Q288.0325,1409.8288 288.0325,1411.9225 Q288.0325,1414.0163 288.72,1415.0944 Q289.4075,1416.1569 290.7513,1416.1569 Q291.3763,1416.1569 291.97,1415.8913 Q292.5638,1415.61 293.1888,1415.0319 L293.1888,1417.7506 Z " fill="#000000"/><text fill="#000000" font-family="sans-serif" font-size="14" lengthAdjust="spacing" textLength="165.5664" x="304.22" y="1416.9567">DBConnectionSingleton</text><line style="stroke:#181818;stroke-width:0.5;" x1="276.22" x2="471.7864" y1="1428.11" y2="1428.11"/><line style="stroke:#181818;stroke-width:0.5;" x1="276.22" x2="471.7864" y1="1436.11" y2="1436.11"/></g><!--link ConsigliServiceImpl to ConsigliDAO--><g class="link" data-entity-1="ConsigliServiceImpl" data-entity-2="ConsigliDAO" data-source-line="109" data-uid="lnk13" id="link_ConsigliServiceImpl_ConsigliDAO"><path codeLine="109" d="M374.65,428.16 C374.53,479.41 374.4148,530.08 374.2948,578.77" fill="none" id="ConsigliServiceImpl-to-ConsigliDAO" style="stroke:#181818;stroke-width:1;"/><polygon fill="#181818" points="374.28,584.77,378.3022,575.7799,374.2923,579.77,370.3022,575.7602,374.28,584.77" style="stroke:#181818;stroke-width:1;"/><text fill="#000000" font-family="sans-serif" font-size="13" lengthAdjust="spacing" textLength="81.1294" x="375" y="470.7869">delegates to</text></g><!--reverse link ConsigliDAO to JdbcConsigliDAO--><g class="link" data-entity-1="ConsigliDAO" data-entity-2="JdbcConsigliDAO" data-source-line="110" data-uid="lnk14" id="link_ConsigliDAO_JdbcConsigliDAO"><path codeLine="110" d="M374,846.94 C374,871.24 374,879.35 374,905.42" fill="none" id="ConsigliDAO-backto-JdbcConsigliDAO" style="stroke:#181818;stroke-width:1;stroke-dasharray:7,7;"/><polygon fill="none" points="374,828.94,368,846.94,380,846.94,374,828.94" style="stroke:#181818;stroke-width:1;"/></g><!--link JdbcConsigliDAO to DBConnectionSingleton--><g class="link" data-entity-1="JdbcConsigliDAO" data-entity-2="DBConnectionSingleton" data-source-line="111" data-uid="lnk17" id="link_JdbcConsigliDAO_DBConnectionSingleton"><path codeLine="111" d="M374,1296.5 C374,1336.5 374,1367.28 374,1389.91" fill="none" id="JdbcConsigliDAO-to-DBConnectionSingleton" style="stroke:#181818;stroke-width:1;stroke-dasharray:7,7;"/><polygon fill="#181818" points="374,1395.91,378,1386.91,374,1390.91,370,1386.91,374,1395.91" style="stroke:#181818;stroke-width:1;"/><text fill="#000000" font-family="sans-serif" font-size="13" lengthAdjust="spacing" textLength="29.7832" x="375" y="1341.1769">uses</text></g><!--link Consiglio to ConsiglioDettagliato--><g class="link" data-entity-1="Consiglio" data-entity-2="ConsiglioDettagliato" data-source-line="112" data-uid="lnk18" id="link_Consiglio_ConsiglioDettagliato"><path codeLine="112" d="M932,788.11 C932,843.02 932,916.79 932,978.8" fill="none" id="Consiglio-ConsiglioDettagliato" style="stroke:#181818;stroke-width:1;"/></g><!--link ConsigliServiceImpl to ConsigliService--><g class="link" data-entity-1="ConsigliServiceImpl" data-entity-2="ConsigliService" data-source-line="113" data-uid="lnk19" id="link_ConsigliServiceImpl_ConsigliService"><path codeLine="113" d="M678,334.99 C812.03,367.2 968.68,414.96 1100,482.72 C1144.72,505.8 1174.9529,525.585 1214.5929,557.115" fill="none" id="ConsigliServiceImpl-to-ConsigliService" style="stroke:#181818;stroke-width:1;stroke-dasharray:7,7;"/><polygon fill="none" points="1228.68,568.32,1218.3279,552.4193,1210.8579,561.8107,1228.68,568.32" style="stroke:#181818;stroke-width:1;"/></g><!--SRC=[xLXRRvim57xFhx3wqaQZx7sAa4XWLIgIJ0kHjgVA1HTP9RZ29jFKxh_l60WOuWJQ9Bj8HOGG-piNVuTpyCabSlm5Iad0qf0Fdd3mY2E2BkuPUvI3wpL9GfAQ0Kj2kg6SoZjEevXUeES1WgCGHPDoc9N3ylY0bYAbIOGoJj9fg8pJHA2OtgSafRWn4JE0ondc4I7OdhcjCTn2bEOAjmLJPZmMuDZ1WlXqJL281QuSLb3Ls5NXiI4TDNB3ssjXOfWB_Hfe6N30SrnuTnmPfK32riGhvtjILKeAAbZCl0gpYy2PO2dH8dhJhLXHa0Tj7SGT7puaM1tARQpaDRy0toHzm06f19OatL3uhOdMt9wvokY6qH3XAA9P4j7QHYEqHeLlHjRO3Pc1AkmUkeqsAqEL5ih5A2VKGX4HjI2zwZIjrwFORgk4MpW5WSMpjdhDAavYfbjT5GCBSBnIDFwvWbWqup9inp5xWYU9J4fYMq7i4RoZOfTx49AOI0_qpz49NDZFbrAbcjJL4mTOXD87voLox4MTJnpX94ItpdY2wFef9dBDe8Kb-zyhe79Jl5uQBvNT59M6ddSICGmxAAiaj0-dSNJMFT0aV7FQIN30igIcNgfeBUWj6TNowb3cdbp_gr9MAZfzgfuZw4gwdiTwpqoLZFNDKFaLn9XpT1lU1_fCkaPSvcWW5UDuou3jE7UJnNmvlV6cYmxiPB6Q-nMw0_nvEgyrs_vhuV9UVdptvgRJiSF2TxRdzL4m_dwtMhfVEw2hBuxjkw1zDdFdVfTdZkkvEReVmxaVZklxThcGhK__HZqyPHaxigA-ryFtUjYd7hOs_bFOhQ3HY1U_B6j_VPHhczdVTEMk0AXLDgZlDLsAOljg-DeMuq_lS_vgTz6zYm9TysnDQWkdsadz7xt9cHFyp0_X-NgKl4K1cOG4iWtX7t6QiXzye4l_wskhaRoVyiL740IE11keKwCNqsnlgGRjBPPfMdlRdKpGc9hG9rMkBS5ve9eb5s0O5b7xoC0pxNzBsbMOvelLhZ2_0G00]--></g></svg>