<svg xmlns="http://www.w3.org/2000/svg" xmlns:xlink="http://www.w3.org/1999/xlink" contentStyleType="text/css" data-diagram-type="SEQUENCE" height="1622px" preserveAspectRatio="none" style="width:759px;height:1622px;background:#FFFFFF;" version="1.1" viewBox="0 0 759 1622" width="759px" zoomAndPan="magnify"><title>ParticleAnimation</title><defs/><g><text fill="#000000" font-family="sans-serif" font-size="14" font-weight="bold" lengthAdjust="spacing" textLength="141.4082" x="305.051" y="27.9951">ParticleAnimation</text><rect fill="none" height="116.2031" style="stroke:#000000;stroke-width:1.5;" width="254.3521" x="80.1729" y="401.6563"/><rect fill="none" height="116.2031" style="stroke:#000000;stroke-width:1.5;" width="337.0195" x="80.1729" y="667.3906"/><rect fill="none" height="88.3984" style="stroke:#000000;stroke-width:1.5;" width="510.5347" x="80.1729" y="1013.5234"/><g><title>Controller</title><rect fill="#000000" fill-opacity="0.00000" height="1423.0547" width="8" x="38.5864" y="118.5938"/><line style="stroke:#181818;stroke-width:0.5;stroke-dasharray:5,5;" x1="42" x2="42" y1="118.5938" y2="1541.6484"/></g><g><title>ParticleAnimation</title><rect fill="#000000" fill-opacity="0.00000" height="1423.0547" width="8" x="155.0381" y="118.5938"/><line style="stroke:#181818;stroke-width:0.5;stroke-dasharray:5,5;" x1="158.1729" x2="158.1729" y1="118.5938" y2="1541.6484"/></g><g><title>Canvas</title><rect fill="#000000" fill-opacity="0.00000" height="1423.0547" width="8" x="408.1924" y="118.5938"/><line style="stroke:#181818;stroke-width:0.5;stroke-dasharray:5,5;" x1="411.4995" x2="411.4995" y1="118.5938" y2="1541.6484"/></g><g><title>AnimationTimer</title><rect fill="#000000" fill-opacity="0.00000" height="1423.0547" width="8" x="513.7964" y="118.5938"/><line style="stroke:#181818;stroke-width:0.5;stroke-dasharray:5,5;" x1="516.8853" x2="516.8853" y1="118.5938" y2="1541.6484"/></g><g class="participant participant-head" data-participant="Controller"><text fill="#000000" font-family="sans-serif" font-size="14" lengthAdjust="spacing" textLength="69.1729" x="5" y="115.292">Controller</text><ellipse cx="42.5864" cy="50.7969" fill="#E2E2F0" rx="8" ry="8" style="stroke:#181818;stroke-width:0.5;"/><path d="M42.5864,58.7969 L42.5864,85.7969 M29.5864,66.7969 L55.5864,66.7969 M42.5864,85.7969 L29.5864,100.7969 M42.5864,85.7969 L55.5864,100.7969" fill="none" style="stroke:#181818;stroke-width:0.5;"/></g><g class="participant participant-tail" data-participant="Controller"><text fill="#000000" font-family="sans-serif" font-size="14" lengthAdjust="spacing" textLength="69.1729" x="5" y="1553.6436">Controller</text><ellipse cx="42.5864" cy="1565.4453" fill="#E2E2F0" rx="8" ry="8" style="stroke:#181818;stroke-width:0.5;"/><path d="M42.5864,1573.4453 L42.5864,1600.4453 M29.5864,1581.4453 L55.5864,1581.4453 M42.5864,1600.4453 L29.5864,1615.4453 M42.5864,1600.4453 L55.5864,1615.4453" fill="none" style="stroke:#181818;stroke-width:0.5;"/></g><g class="participant participant-head" data-participant="PA"><rect fill="#E2E2F0" height="30.2969" rx="2.5" ry="2.5" style="stroke:#181818;stroke-width:0.5;" width="137.7305" x="90.1729" y="87.2969"/><text fill="#000000" font-family="sans-serif" font-size="14" lengthAdjust="spacing" textLength="123.7305" x="97.1729" y="107.292">ParticleAnimation</text></g><g class="participant participant-tail" data-participant="PA"><rect fill="#E2E2F0" height="30.2969" rx="2.5" ry="2.5" style="stroke:#181818;stroke-width:0.5;" width="137.7305" x="90.1729" y="1540.6484"/><text fill="#000000" font-family="sans-serif" font-size="14" lengthAdjust="spacing" textLength="123.7305" x="97.1729" y="1560.6436">ParticleAnimation</text></g><g class="participant participant-head" data-participant="Canvas"><rect fill="#E2E2F0" height="30.2969" rx="2.5" ry="2.5" style="stroke:#181818;stroke-width:0.5;" width="65.3857" x="379.4995" y="87.2969"/><text fill="#000000" font-family="sans-serif" font-size="14" lengthAdjust="spacing" textLength="51.3857" x="386.4995" y="107.292">Canvas</text></g><g class="participant participant-tail" data-participant="Canvas"><rect fill="#E2E2F0" height="30.2969" rx="2.5" ry="2.5" style="stroke:#181818;stroke-width:0.5;" width="65.3857" x="379.4995" y="1540.6484"/><text fill="#000000" font-family="sans-serif" font-size="14" lengthAdjust="spacing" textLength="51.3857" x="386.4995" y="1560.6436">Canvas</text></g><g class="participant participant-head" data-participant="Timer"><rect fill="#E2E2F0" height="30.2969" rx="2.5" ry="2.5" style="stroke:#181818;stroke-width:0.5;" width="125.8223" x="454.8853" y="87.2969"/><text fill="#000000" font-family="sans-serif" font-size="14" lengthAdjust="spacing" textLength="111.8223" x="461.8853" y="107.292">AnimationTimer</text></g><g class="participant participant-tail" data-participant="Timer"><rect fill="#E2E2F0" height="30.2969" rx="2.5" ry="2.5" style="stroke:#181818;stroke-width:0.5;" width="125.8223" x="454.8853" y="1540.6484"/><text fill="#000000" font-family="sans-serif" font-size="14" lengthAdjust="spacing" textLength="111.8223" x="461.8853" y="1560.6436">AnimationTimer</text></g><rect fill="#EEEEEE" height="3" style="stroke:#EEEEEE;stroke-width:1;" width="752.5103" x="0" y="149.1602"/><line style="stroke:#000000;stroke-width:1;" x1="0" x2="752.5103" y1="149.1602" y2="149.1602"/><line style="stroke:#000000;stroke-width:1;" x1="0" x2="752.5103" y1="152.1602" y2="152.1602"/><rect fill="#EEEEEE" height="23.1328" style="stroke:#000000;stroke-width:2;" width="105.6411" x="323.4346" y="138.5938"/><text fill="#000000" font-family="sans-serif" font-size="13" font-weight="bold" lengthAdjust="spacing" textLength="87.1152" x="329.4346" y="154.6606">Costruzione</text><g class="message" data-participant-1="Controller" data-participant-2="PA"><polygon fill="#181818" points="147.0381,188.8594,157.0381,192.8594,147.0381,196.8594,151.0381,192.8594" style="stroke:#181818;stroke-width:1;"/><line style="stroke:#181818;stroke-width:1;" x1="42.5864" x2="153.0381" y1="192.8594" y2="192.8594"/><text fill="#000000" font-family="sans-serif" font-size="13" lengthAdjust="spacing" textLength="84.7285" x="49.5864" y="187.7935">new(Canvas)</text></g><g class="message" data-participant-1="PA" data-participant-2="Canvas"><polygon fill="#181818" points="400.1924,217.9922,410.1924,221.9922,400.1924,225.9922,404.1924,221.9922" style="stroke:#181818;stroke-width:1;"/><line style="stroke:#181818;stroke-width:1;" x1="159.0381" x2="406.1924" y1="221.9922" y2="221.9922"/><text fill="#000000" font-family="sans-serif" font-size="13" lengthAdjust="spacing" textLength="120.8276" x="166.0381" y="216.9263">setManaged(false)</text></g><g class="message" data-participant-1="PA" data-participant-2="PA"><line style="stroke:#181818;stroke-width:1;" x1="159.0381" x2="201.0381" y1="251.125" y2="251.125"/><line style="stroke:#181818;stroke-width:1;" x1="201.0381" x2="201.0381" y1="251.125" y2="264.125"/><line style="stroke:#181818;stroke-width:1;" x1="160.0381" x2="201.0381" y1="264.125" y2="264.125"/><polygon fill="#181818" points="170.0381,260.125,160.0381,264.125,170.0381,268.125,166.0381,264.125" style="stroke:#181818;stroke-width:1;"/><text fill="#000000" font-family="sans-serif" font-size="13" lengthAdjust="spacing" textLength="103.1938" x="166.0381" y="246.0591">registra listener</text></g><path d="M164,277.125 L164,317.125 L623,317.125 L623,287.125 L613,277.125 L164,277.125" fill="#FEFFDD" style="stroke:#181818;stroke-width:0.5;"/><path d="M613,277.125 L613,287.125 L623,287.125 L613,277.125" fill="#FEFFDD" style="stroke:#181818;stroke-width:0.5;"/><text fill="#000000" font-family="sans-serif" font-size="13" lengthAdjust="spacing" textLength="426.2134" x="170" y="294.1919">Istanzia l'oggetto, rende il Canvas non gestito e registra i listener</text><text fill="#000000" font-family="sans-serif" font-size="13" lengthAdjust="spacing" textLength="438.7944" x="170" y="309.3247">per parent e scene per gestire ridimensionamento e avvio differito.</text><rect fill="#EEEEEE" height="3" style="stroke:#EEEEEE;stroke-width:1;" width="752.5103" x="0" y="342.957"/><line style="stroke:#000000;stroke-width:1;" x1="0" x2="752.5103" y1="342.957" y2="342.957"/><line style="stroke:#000000;stroke-width:1;" x1="0" x2="752.5103" y1="345.957" y2="345.957"/><rect fill="#EEEEEE" height="23.1328" style="stroke:#000000;stroke-width:2;" width="58.9224" x="346.7939" y="332.3906"/><text fill="#000000" font-family="sans-serif" font-size="13" font-weight="bold" lengthAdjust="spacing" textLength="40.3965" x="352.7939" y="348.4575">Avvio</text><g class="message" data-participant-1="Controller" data-participant-2="PA"><polygon fill="#181818" points="147.0381,382.6563,157.0381,386.6563,147.0381,390.6563,151.0381,386.6563" style="stroke:#181818;stroke-width:1;"/><line style="stroke:#181818;stroke-width:1;" x1="42.5864" x2="153.0381" y1="386.6563" y2="386.6563"/><text fill="#000000" font-family="sans-serif" font-size="13" lengthAdjust="spacing" textLength="40.4219" x="49.5864" y="381.5903">start()</text></g><path d="M80.1729,401.6563 L144.6157,401.6563 L144.6157,408.7891 L134.6157,418.7891 L80.1729,418.7891 L80.1729,401.6563" fill="#EEEEEE" style="stroke:#000000;stroke-width:1.5;"/><rect fill="none" height="116.2031" style="stroke:#000000;stroke-width:1.5;" width="254.3521" x="80.1729" y="401.6563"/><text fill="#000000" font-family="sans-serif" font-size="13" font-weight="bold" lengthAdjust="spacing" textLength="19.4429" x="95.1729" y="414.7231">alt</text><text fill="#000000" font-family="sans-serif" font-size="11" font-weight="bold" lengthAdjust="spacing" textLength="169.9092" x="159.6157" y="413.8667">[canvas dimensioni pronte]</text><g class="message" data-participant-1="PA" data-participant-2="PA"><line style="stroke:#181818;stroke-width:1;" x1="159.0381" x2="201.0381" y1="439.9219" y2="439.9219"/><line style="stroke:#181818;stroke-width:1;" x1="201.0381" x2="201.0381" y1="439.9219" y2="452.9219"/><line style="stroke:#181818;stroke-width:1;" x1="160.0381" x2="201.0381" y1="452.9219" y2="452.9219"/><polygon fill="#181818" points="170.0381,448.9219,160.0381,452.9219,170.0381,456.9219,166.0381,452.9219" style="stroke:#181818;stroke-width:1;"/><text fill="#000000" font-family="sans-serif" font-size="13" lengthAdjust="spacing" textLength="94.0342" x="166.0381" y="434.856">performStart()</text></g><line style="stroke:#000000;stroke-width:1;stroke-dasharray:2,2;" x1="80.1729" x2="334.5249" y1="461.9219" y2="461.9219"/><text fill="#000000" font-family="sans-serif" font-size="11" font-weight="bold" lengthAdjust="spacing" textLength="78.5093" x="85.1729" y="472.1323">[non pronte]</text><g class="message" data-participant-1="PA" data-participant-2="PA"><line style="stroke:#181818;stroke-width:1;" x1="159.0381" x2="201.0381" y1="496.8594" y2="496.8594"/><line style="stroke:#181818;stroke-width:1;" x1="201.0381" x2="201.0381" y1="496.8594" y2="509.8594"/><line style="stroke:#181818;stroke-width:1;" x1="160.0381" x2="201.0381" y1="509.8594" y2="509.8594"/><polygon fill="#181818" points="170.0381,505.8594,160.0381,509.8594,170.0381,513.8594,166.0381,509.8594" style="stroke:#181818;stroke-width:1;"/><text fill="#000000" font-family="sans-serif" font-size="13" lengthAdjust="spacing" textLength="122.1733" x="166.0381" y="491.7935">pendingStart=true</text></g><path d="M164,529.8594 L164,569.8594 L625,569.8594 L625,539.8594 L615,529.8594 L164,529.8594" fill="#FEFFDD" style="stroke:#181818;stroke-width:0.5;"/><path d="M615,529.8594 L615,539.8594 L625,539.8594 L615,529.8594" fill="#FEFFDD" style="stroke:#181818;stroke-width:0.5;"/><text fill="#000000" font-family="sans-serif" font-size="13" lengthAdjust="spacing" textLength="440.8765" x="170" y="546.9263">start(): se il Canvas ha dimensioni valide avvia subito performStart,</text><text fill="#000000" font-family="sans-serif" font-size="13" lengthAdjust="spacing" textLength="325.0127" x="170" y="562.0591">altrimenti segna pendingStart per avvio ritardato.</text><rect fill="#EEEEEE" height="3" style="stroke:#EEEEEE;stroke-width:1;" width="752.5103" x="0" y="595.6914"/><line style="stroke:#000000;stroke-width:1;" x1="0" x2="752.5103" y1="595.6914" y2="595.6914"/><line style="stroke:#000000;stroke-width:1;" x1="0" x2="752.5103" y1="598.6914" y2="598.6914"/><rect fill="#EEEEEE" height="23.1328" style="stroke:#000000;stroke-width:2;" width="186.6436" x="282.9333" y="585.125"/><text fill="#000000" font-family="sans-serif" font-size="13" font-weight="bold" lengthAdjust="spacing" textLength="168.1177" x="288.9333" y="601.1919">Inizializzazione tardiva</text><g class="message" data-participant-1="PA" data-participant-2="PA"><line style="stroke:#181818;stroke-width:1;" x1="159.0381" x2="201.0381" y1="639.3906" y2="639.3906"/><line style="stroke:#181818;stroke-width:1;" x1="201.0381" x2="201.0381" y1="639.3906" y2="652.3906"/><line style="stroke:#181818;stroke-width:1;" x1="160.0381" x2="201.0381" y1="652.3906" y2="652.3906"/><polygon fill="#181818" points="170.0381,648.3906,160.0381,652.3906,170.0381,656.3906,166.0381,652.3906" style="stroke:#181818;stroke-width:1;"/><text fill="#000000" font-family="sans-serif" font-size="13" lengthAdjust="spacing" textLength="165.1089" x="166.0381" y="634.3247">ensureCanvasInitialized()</text></g><path d="M80.1729,667.3906 L144.6157,667.3906 L144.6157,674.5234 L134.6157,684.5234 L80.1729,684.5234 L80.1729,667.3906" fill="#EEEEEE" style="stroke:#000000;stroke-width:1.5;"/><rect fill="none" height="116.2031" style="stroke:#000000;stroke-width:1.5;" width="337.0195" x="80.1729" y="667.3906"/><text fill="#000000" font-family="sans-serif" font-size="13" font-weight="bold" lengthAdjust="spacing" textLength="19.4429" x="95.1729" y="680.4575">alt</text><text fill="#000000" font-family="sans-serif" font-size="11" font-weight="bold" lengthAdjust="spacing" textLength="91.8564" x="159.6157" y="679.6011">[pendingStart]</text><g class="message" data-participant-1="PA" data-participant-2="PA"><line style="stroke:#181818;stroke-width:1;" x1="159.0381" x2="201.0381" y1="705.6563" y2="705.6563"/><line style="stroke:#181818;stroke-width:1;" x1="201.0381" x2="201.0381" y1="705.6563" y2="718.6563"/><line style="stroke:#181818;stroke-width:1;" x1="160.0381" x2="201.0381" y1="718.6563" y2="718.6563"/><polygon fill="#181818" points="170.0381,714.6563,160.0381,718.6563,170.0381,722.6563,166.0381,718.6563" style="stroke:#181818;stroke-width:1;"/><text fill="#000000" font-family="sans-serif" font-size="13" lengthAdjust="spacing" textLength="94.0342" x="166.0381" y="700.5903">performStart()</text></g><line style="stroke:#000000;stroke-width:1;stroke-dasharray:2,2;" x1="80.1729" x2="417.1924" y1="727.6563" y2="727.6563"/><text fill="#000000" font-family="sans-serif" font-size="11" font-weight="bold" lengthAdjust="spacing" textLength="103.3076" x="85.1729" y="737.8667">[particles vuoto]</text><g class="message" data-participant-1="PA" data-participant-2="PA"><line style="stroke:#181818;stroke-width:1;" x1="159.0381" x2="201.0381" y1="762.5938" y2="762.5938"/><line style="stroke:#181818;stroke-width:1;" x1="201.0381" x2="201.0381" y1="762.5938" y2="775.5938"/><line style="stroke:#181818;stroke-width:1;" x1="160.0381" x2="201.0381" y1="775.5938" y2="775.5938"/><polygon fill="#181818" points="170.0381,771.5938,160.0381,775.5938,170.0381,779.5938,166.0381,775.5938" style="stroke:#181818;stroke-width:1;"/><text fill="#000000" font-family="sans-serif" font-size="13" lengthAdjust="spacing" textLength="239.1543" x="166.0381" y="757.5278">createParticles(); updateAndDraw(0)</text></g><path d="M164,795.5938 L164,835.5938 L638,835.5938 L638,805.5938 L628,795.5938 L164,795.5938" fill="#FEFFDD" style="stroke:#181818;stroke-width:0.5;"/><path d="M628,795.5938 L628,805.5938 L638,805.5938 L628,795.5938" fill="#FEFFDD" style="stroke:#181818;stroke-width:0.5;"/><text fill="#000000" font-family="sans-serif" font-size="13" lengthAdjust="spacing" textLength="420.9194" x="170" y="812.6606">ensureCanvasInitialized(): se pendingStart esegue performStart;</text><text fill="#000000" font-family="sans-serif" font-size="13" lengthAdjust="spacing" textLength="453.8638" x="170" y="827.7935">se prima inizializzazione crea le particelle e disegna un frame statico.</text><rect fill="#EEEEEE" height="3" style="stroke:#EEEEEE;stroke-width:1;" width="752.5103" x="0" y="861.4258"/><line style="stroke:#000000;stroke-width:1;" x1="0" x2="752.5103" y1="861.4258" y2="861.4258"/><line style="stroke:#000000;stroke-width:1;" x1="0" x2="752.5103" y1="864.4258" y2="864.4258"/><rect fill="#EEEEEE" height="23.1328" style="stroke:#000000;stroke-width:2;" width="102.8926" x="324.8088" y="850.8594"/><text fill="#000000" font-family="sans-serif" font-size="13" font-weight="bold" lengthAdjust="spacing" textLength="84.3667" x="330.8088" y="866.9263">Avvio timer</text><g class="message" data-participant-1="PA" data-participant-2="Timer"><polygon fill="#181818" points="505.7964,901.125,515.7964,905.125,505.7964,909.125,509.7964,905.125" style="stroke:#181818;stroke-width:1;"/><line style="stroke:#181818;stroke-width:1;" x1="159.0381" x2="511.7964" y1="905.125" y2="905.125"/><text fill="#000000" font-family="sans-serif" font-size="13" lengthAdjust="spacing" textLength="40.4219" x="166.0381" y="900.0591">start()</text></g><path d="M164,918.125 L164,958.125 L698,958.125 L698,928.125 L688,918.125 L164,918.125" fill="#FEFFDD" style="stroke:#181818;stroke-width:0.5;"/><path d="M688,918.125 L688,928.125 L698,928.125 L688,918.125" fill="#FEFFDD" style="stroke:#181818;stroke-width:0.5;"/><text fill="#000000" font-family="sans-serif" font-size="13" lengthAdjust="spacing" textLength="513.6841" x="170" y="935.1919">performStart() ha creato le particelle, azzerato startTime, messo running=true</text><text fill="#000000" font-family="sans-serif" font-size="13" lengthAdjust="spacing" textLength="179.3975" x="170" y="950.3247">e avviato l'AnimationTimer.</text><rect fill="#EEEEEE" height="3" style="stroke:#EEEEEE;stroke-width:1;" width="752.5103" x="0" y="983.957"/><line style="stroke:#000000;stroke-width:1;" x1="0" x2="752.5103" y1="983.957" y2="983.957"/><line style="stroke:#000000;stroke-width:1;" x1="0" x2="752.5103" y1="986.957" y2="986.957"/><rect fill="#EEEEEE" height="23.1328" style="stroke:#000000;stroke-width:2;" width="141.9688" x="305.2708" y="973.3906"/><text fill="#000000" font-family="sans-serif" font-size="13" font-weight="bold" lengthAdjust="spacing" textLength="123.4429" x="311.2708" y="989.4575">Ciclo animazione</text><path d="M80.1729,1013.5234 L156.7969,1013.5234 L156.7969,1020.6563 L146.7969,1030.6563 L80.1729,1030.6563 L80.1729,1013.5234" fill="#EEEEEE" style="stroke:#000000;stroke-width:1.5;"/><rect fill="none" height="88.3984" style="stroke:#000000;stroke-width:1.5;" width="510.5347" x="80.1729" y="1013.5234"/><text fill="#000000" font-family="sans-serif" font-size="13" font-weight="bold" lengthAdjust="spacing" textLength="31.624" x="95.1729" y="1026.5903">loop</text><text fill="#000000" font-family="sans-serif" font-size="11" font-weight="bold" lengthAdjust="spacing" textLength="90.3149" x="171.7969" y="1025.7339">[fino a durata]</text><g class="message" data-participant-1="Timer" data-participant-2="PA"><polygon fill="#181818" points="170.0381,1047.7891,160.0381,1051.7891,170.0381,1055.7891,166.0381,1051.7891" style="stroke:#181818;stroke-width:1;"/><line style="stroke:#181818;stroke-width:1;" x1="164.0381" x2="516.7964" y1="1051.7891" y2="1051.7891"/><text fill="#000000" font-family="sans-serif" font-size="13" lengthAdjust="spacing" textLength="54.4502" x="176.0381" y="1046.7231">handle()</text></g><g class="message" data-participant-1="PA" data-participant-2="PA"><line style="stroke:#181818;stroke-width:1;" x1="159.0381" x2="201.0381" y1="1080.9219" y2="1080.9219"/><line style="stroke:#181818;stroke-width:1;" x1="201.0381" x2="201.0381" y1="1080.9219" y2="1093.9219"/><line style="stroke:#181818;stroke-width:1;" x1="160.0381" x2="201.0381" y1="1093.9219" y2="1093.9219"/><polygon fill="#181818" points="170.0381,1089.9219,160.0381,1093.9219,170.0381,1097.9219,166.0381,1093.9219" style="stroke:#181818;stroke-width:1;"/><text fill="#000000" font-family="sans-serif" font-size="13" lengthAdjust="spacing" textLength="215.1538" x="166.0381" y="1075.856">updateAndDraw(speedMultiplier)</text></g><path d="M164,1113.9219 L164,1153.9219 L669,1153.9219 L669,1123.9219 L659,1113.9219 L164,1113.9219" fill="#FEFFDD" style="stroke:#181818;stroke-width:0.5;"/><path d="M659,1113.9219 L659,1123.9219 L669,1123.9219 L659,1113.9219" fill="#FEFFDD" style="stroke:#181818;stroke-width:0.5;"/><text fill="#000000" font-family="sans-serif" font-size="13" lengthAdjust="spacing" textLength="484.9292" x="170" y="1130.9888">handle(): calcola elapsed, speedMultiplier decrescente e aggiorna/disegna</text><text fill="#000000" font-family="sans-serif" font-size="13" lengthAdjust="spacing" textLength="336.5273" x="170" y="1146.1216">le particelle finch&#233; non scade la durata configurata.</text><rect fill="#EEEEEE" height="3" style="stroke:#EEEEEE;stroke-width:1;" width="752.5103" x="0" y="1179.7539"/><line style="stroke:#000000;stroke-width:1;" x1="0" x2="752.5103" y1="1179.7539" y2="1179.7539"/><line style="stroke:#000000;stroke-width:1;" x1="0" x2="752.5103" y1="1182.7539" y2="1182.7539"/><rect fill="#EEEEEE" height="23.1328" style="stroke:#000000;stroke-width:2;" width="103.1909" x="324.6597" y="1169.1875"/><text fill="#000000" font-family="sans-serif" font-size="13" font-weight="bold" lengthAdjust="spacing" textLength="84.665" x="330.6597" y="1185.2544">Fine durata</text><g class="message" data-participant-1="Timer" data-participant-2="PA"><polygon fill="#181818" points="170.0381,1219.4531,160.0381,1223.4531,170.0381,1227.4531,166.0381,1223.4531" style="stroke:#181818;stroke-width:1;"/><line style="stroke:#181818;stroke-width:1;" x1="164.0381" x2="516.7964" y1="1223.4531" y2="1223.4531"/><text fill="#000000" font-family="sans-serif" font-size="13" lengthAdjust="spacing" textLength="184.228" x="176.0381" y="1218.3872">handle() (elapsed&gt;=durata)</text></g><g class="message" data-participant-1="PA" data-participant-2="PA"><line style="stroke:#181818;stroke-width:1;" x1="159.0381" x2="201.0381" y1="1252.5859" y2="1252.5859"/><line style="stroke:#181818;stroke-width:1;" x1="201.0381" x2="201.0381" y1="1252.5859" y2="1265.5859"/><line style="stroke:#181818;stroke-width:1;" x1="160.0381" x2="201.0381" y1="1265.5859" y2="1265.5859"/><polygon fill="#181818" points="170.0381,1261.5859,160.0381,1265.5859,170.0381,1269.5859,166.0381,1265.5859" style="stroke:#181818;stroke-width:1;"/><text fill="#000000" font-family="sans-serif" font-size="13" lengthAdjust="spacing" textLength="123.5571" x="166.0381" y="1247.52">updateAndDraw(0)</text></g><g class="message" data-participant-1="PA" data-participant-2="PA"><line style="stroke:#181818;stroke-width:1;" x1="159.0381" x2="201.0381" y1="1294.7188" y2="1294.7188"/><line style="stroke:#181818;stroke-width:1;" x1="201.0381" x2="201.0381" y1="1294.7188" y2="1307.7188"/><line style="stroke:#181818;stroke-width:1;" x1="160.0381" x2="201.0381" y1="1307.7188" y2="1307.7188"/><polygon fill="#181818" points="170.0381,1303.7188,160.0381,1307.7188,170.0381,1311.7188,166.0381,1307.7188" style="stroke:#181818;stroke-width:1;"/><text fill="#000000" font-family="sans-serif" font-size="13" lengthAdjust="spacing" textLength="138.7153" x="166.0381" y="1289.6528">stop(); running=false</text></g><g class="message" data-participant-1="PA" data-participant-2="Timer"><polygon fill="#181818" points="505.7964,1332.8516,515.7964,1336.8516,505.7964,1340.8516,509.7964,1336.8516" style="stroke:#181818;stroke-width:1;"/><line style="stroke:#181818;stroke-width:1;" x1="159.0381" x2="511.7964" y1="1336.8516" y2="1336.8516"/><text fill="#000000" font-family="sans-serif" font-size="13" lengthAdjust="spacing" textLength="38.2192" x="166.0381" y="1331.7856">stop()</text></g><path d="M164,1349.8516 L164,1389.8516 L698,1389.8516 L698,1359.8516 L688,1349.8516 L164,1349.8516" fill="#FEFFDD" style="stroke:#181818;stroke-width:0.5;"/><path d="M688,1349.8516 L688,1359.8516 L698,1359.8516 L688,1349.8516" fill="#FEFFDD" style="stroke:#181818;stroke-width:0.5;"/><text fill="#000000" font-family="sans-serif" font-size="13" lengthAdjust="spacing" textLength="513.1191" x="170" y="1366.9185">Al raggiungimento della durata imposta frame finale (speed=0), chiama stop()</text><text fill="#000000" font-family="sans-serif" font-size="13" lengthAdjust="spacing" textLength="282.0264" x="170" y="1382.0513">e ferma il timer impostando running=false.</text><rect fill="#EEEEEE" height="3" style="stroke:#EEEEEE;stroke-width:1;" width="752.5103" x="0" y="1415.6836"/><line style="stroke:#000000;stroke-width:1;" x1="0" x2="752.5103" y1="1415.6836" y2="1415.6836"/><line style="stroke:#000000;stroke-width:1;" x1="0" x2="752.5103" y1="1418.6836" y2="1418.6836"/><rect fill="#EEEEEE" height="23.1328" style="stroke:#000000;stroke-width:2;" width="145.0537" x="303.7283" y="1405.1172"/><text fill="#000000" font-family="sans-serif" font-size="13" font-weight="bold" lengthAdjust="spacing" textLength="126.5278" x="309.7283" y="1421.1841">Chiusura finestra</text><g class="message" data-participant-1="Controller" data-participant-2="PA"><polygon fill="#181818" points="147.0381,1455.3828,157.0381,1459.3828,147.0381,1463.3828,151.0381,1459.3828" style="stroke:#181818;stroke-width:1;"/><line style="stroke:#181818;stroke-width:1;" x1="42.5864" x2="153.0381" y1="1459.3828" y2="1459.3828"/><text fill="#000000" font-family="sans-serif" font-size="13" lengthAdjust="spacing" textLength="38.2192" x="49.5864" y="1454.3169">stop()</text></g><g class="message" data-participant-1="PA" data-participant-2="Timer"><polygon fill="#181818" points="505.7964,1484.5156,515.7964,1488.5156,505.7964,1492.5156,509.7964,1488.5156" style="stroke:#181818;stroke-width:1;"/><line style="stroke:#181818;stroke-width:1;" x1="159.0381" x2="511.7964" y1="1488.5156" y2="1488.5156"/><text fill="#000000" font-family="sans-serif" font-size="13" lengthAdjust="spacing" textLength="38.2192" x="166.0381" y="1483.4497">stop()</text></g><path d="M164,1501.5156 L164,1526.5156 L747,1526.5156 L747,1511.5156 L737,1501.5156 L164,1501.5156" fill="#FEFFDD" style="stroke:#181818;stroke-width:0.5;"/><path d="M737,1501.5156 L737,1511.5156 L747,1511.5156 L737,1501.5156" fill="#FEFFDD" style="stroke:#181818;stroke-width:0.5;"/><text fill="#000000" font-family="sans-serif" font-size="13" lengthAdjust="spacing" textLength="562.5103" x="170" y="1518.5825">Stop manuale (o chiusura finestra) ferma l'animazione; chiamate ripetute sono sicure.</text><!--SRC=[ZLNBRjim4BphAnQvn0RSDkS43X2aA913W03f3sobbRm0JGeavG3-etv7Vwn3YhOisq5xiatkOsPsk8uQZT0R-wYraIUhMuxgRCLrT9wUdOtU6IEUED3DzFEcwdEAzcmZlJtbwuigywXdjZiEiwEVkYsbZpdvwAQgrcjq3z4FUnmAhTVL2PWlZ-XvJrO-5cFLPGKCE1r_tLEG-CgMEsaMBPiWX_kKvQLJ56Oo-10hlh8k2ddjDf5SYvZg9KIsUqN8hUiwYT6ja6OR8JMb1rbdgPCGDJgIgQXEPNiW1Li1KQ5GuupIKKxogM43hZQ07-Cpb-7TJXqrshRYKVXhXQQKu6L1dlBjLIa0sCV5ic8JgHu17gihzHu9KX5DAW19w_pslUG9HCgKheRQHcsNGzUOY2HKbw8L24dy4vasV0fanqQRaIPJ67ubyKwHh181d-AZeavdUTOzwpTg17dODtoXqOjL3CxeVi-ZSrAOxZZ9Db42di7B214PCMV0BAE0fot_ALfVN1zeDxZePl6r5uvoU1TXiNoWeGTeF97ck-UFnTtokfQVuilgpYGHo3J83Df3bO8W8-nuBaU2HEO0M-0XsAxHKUl1KkjXncGdt5xtNyoFzYXdVh2J0I-ep3LBViYgk3c85V5-BpwTvqgfwegs4W96FLWBkiLwetbI_kryQPo1VORaZZY575U8SQwdLYtEgHdGZJ6kSGcLYMtODaR0utICyvc5NgHv7KpKtgZuJoPuA0GJiAcTOHB3VP1cHMS5g14ealP3JBFWhbFdBNyhGwdcmmBwUlFdTtwheMOy9dFWGhMphNRv-vaOFnG2b2ZeS9KoBGh2n_KOUReqBsmxNONe-kJimvZomZqtHmgv5Ed9a4zy1zlfk08Ra3poqMsFlm0kdWHpXW2Z_kkxvOhgZJ8yNgeZGdool2aMBUcsSNDivqRPw83Nngc1v1t-oORDNVwBrplEQSjso81T0ZfliInOpUraq8V29zVg9Gxu4Xoy6hJ6CfXG_mK0]--></g></svg>