<svg xmlns="http://www.w3.org/2000/svg" xmlns:xlink="http://www.w3.org/1999/xlink" contentStyleType="text/css" data-diagram-type="SEQUENCE" height="606px" preserveAspectRatio="none" style="width:1072px;height:606px;background:#FFFFFF;" version="1.1" viewBox="0 0 1072 606" width="1072px" zoomAndPan="magnify"><title>Sequence diagram</title><defs/><g><text fill="#000000" font-family="sans-serif" font-size="14" font-weight="bold" lengthAdjust="spacing" textLength="146.9248" x="461.5342" y="27.9951">Sequence diagram</text><g><title>Utente</title><rect fill="#000000" fill-opacity="0.00000" height="406.9922" width="8" x="27.6626" y="118.5938"/><line style="stroke:#181818;stroke-width:0.5;stroke-dasharray:5,5;" x1="31" x2="31" y1="118.5938" y2="525.5859"/></g><g><title>GUI </title><rect fill="#000000" fill-opacity="0.00000" height="406.9922" width="8" x="155.2246" y="118.5938"/><line style="stroke:#181818;stroke-width:0.5;stroke-dasharray:5,5;" x1="158.3872" x2="158.3872" y1="118.5938" y2="525.5859"/></g><g><title>. Controller</title><rect fill="#000000" fill-opacity="0.00000" height="406.9922" width="8" x="358.9712" y="118.5938"/><line style="stroke:#181818;stroke-width:0.5;stroke-dasharray:5,5;" x1="362.8013" x2="362.8013" y1="118.5938" y2="525.5859"/></g><g><title>. Service </title><rect fill="#000000" fill-opacity="0.00000" height="406.9922" width="8" x="553.2534" y="118.5938"/><line style="stroke:#181818;stroke-width:0.5;stroke-dasharray:5,5;" x1="556.5742" x2="556.5742" y1="118.5938" y2="525.5859"/></g><g><title>. DAO </title><rect fill="#000000" fill-opacity="0.00000" height="406.9922" width="8" x="724.9443" y="118.5938"/><line style="stroke:#181818;stroke-width:0.5;stroke-dasharray:5,5;" x1="728.4473" x2="728.4473" y1="118.5938" y2="525.5859"/></g><g><title>Database</title><rect fill="#000000" fill-opacity="0.00000" height="406.9922" width="8" x="953.0532" y="118.5938"/><line style="stroke:#181818;stroke-width:0.5;stroke-dasharray:5,5;" x1="956.6528" x2="956.6528" y1="118.5938" y2="525.5859"/></g><g class="participant participant-head" data-participant="Utente"><text fill="#000000" font-family="sans-serif" font-size="14" lengthAdjust="spacing" textLength="47.3252" x="5" y="115.292">Utente</text><ellipse cx="31.6626" cy="50.7969" fill="#E2E2F0" rx="8" ry="8" style="stroke:#181818;stroke-width:0.5;"/><path d="M31.6626,58.7969 L31.6626,85.7969 M18.6626,66.7969 L44.6626,66.7969 M31.6626,85.7969 L18.6626,100.7969 M31.6626,85.7969 L44.6626,100.7969" fill="none" style="stroke:#181818;stroke-width:0.5;"/></g><g class="participant participant-tail" data-participant="Utente"><text fill="#000000" font-family="sans-serif" font-size="14" lengthAdjust="spacing" textLength="47.3252" x="5" y="537.5811">Utente</text><ellipse cx="31.6626" cy="549.3828" fill="#E2E2F0" rx="8" ry="8" style="stroke:#181818;stroke-width:0.5;"/><path d="M31.6626,557.3828 L31.6626,584.3828 M18.6626,565.3828 L44.6626,565.3828 M31.6626,584.3828 L18.6626,599.3828 M31.6626,584.3828 L44.6626,599.3828" fill="none" style="stroke:#181818;stroke-width:0.5;"/></g><g class="participant participant-head" data-participant="GUI"><rect fill="#E2E2F0" height="30.2969" rx="2.5" ry="2.5" style="stroke:#181818;stroke-width:0.5;" width="43.6748" x="137.3872" y="87.2969"/><text fill="#000000" font-family="sans-serif" font-size="14" lengthAdjust="spacing" textLength="25.2246" x="144.3872" y="107.292">GUI</text></g><g class="participant participant-tail" data-participant="GUI"><rect fill="#E2E2F0" height="30.2969" rx="2.5" ry="2.5" style="stroke:#181818;stroke-width:0.5;" width="43.6748" x="137.3872" y="524.5859"/><text fill="#000000" font-family="sans-serif" font-size="14" lengthAdjust="spacing" textLength="25.2246" x="144.3872" y="544.5811">GUI</text></g><g class="participant participant-head" data-participant="Controller"><rect fill="#E2E2F0" height="30.2969" rx="2.5" ry="2.5" style="stroke:#181818;stroke-width:0.5;" width="92.3398" x="316.8013" y="87.2969"/><text fill="#000000" font-family="sans-serif" font-size="14" lengthAdjust="spacing" textLength="78.3398" x="323.8013" y="107.292">: Controller</text></g><g class="participant participant-tail" data-participant="Controller"><rect fill="#E2E2F0" height="30.2969" rx="2.5" ry="2.5" style="stroke:#181818;stroke-width:0.5;" width="92.3398" x="316.8013" y="524.5859"/><text fill="#000000" font-family="sans-serif" font-size="14" lengthAdjust="spacing" textLength="78.3398" x="323.8013" y="544.5811">: Controller</text></g><g class="participant participant-head" data-participant="Service"><rect fill="#E2E2F0" height="30.2969" rx="2.5" ry="2.5" style="stroke:#181818;stroke-width:0.5;" width="79.3584" x="517.5742" y="87.2969"/><text fill="#000000" font-family="sans-serif" font-size="14" lengthAdjust="spacing" textLength="60.9082" x="524.5742" y="107.292">: Service</text></g><g class="participant participant-tail" data-participant="Service"><rect fill="#E2E2F0" height="30.2969" rx="2.5" ry="2.5" style="stroke:#181818;stroke-width:0.5;" width="79.3584" x="517.5742" y="524.5859"/><text fill="#000000" font-family="sans-serif" font-size="14" lengthAdjust="spacing" textLength="60.9082" x="524.5742" y="544.5811">: Service</text></g><g class="participant participant-head" data-participant="DAO"><rect fill="#E2E2F0" height="30.2969" rx="2.5" ry="2.5" style="stroke:#181818;stroke-width:0.5;" width="58.9941" x="699.4473" y="87.2969"/><text fill="#000000" font-family="sans-serif" font-size="14" lengthAdjust="spacing" textLength="40.5439" x="706.4473" y="107.292">: DAO</text></g><g class="participant participant-tail" data-participant="DAO"><rect fill="#E2E2F0" height="30.2969" rx="2.5" ry="2.5" style="stroke:#181818;stroke-width:0.5;" width="58.9941" x="699.4473" y="524.5859"/><text fill="#000000" font-family="sans-serif" font-size="14" lengthAdjust="spacing" textLength="40.5439" x="706.4473" y="544.5811">: DAO</text></g><g class="participant participant-head" data-participant="DB"><rect fill="#E2E2F0" height="30.2969" rx="2.5" ry="2.5" style="stroke:#181818;stroke-width:0.5;" width="80.8008" x="916.6528" y="87.2969"/><text fill="#000000" font-family="sans-serif" font-size="14" lengthAdjust="spacing" textLength="66.8008" x="923.6528" y="107.292">Database</text></g><g class="participant participant-tail" data-participant="DB"><rect fill="#E2E2F0" height="30.2969" rx="2.5" ry="2.5" style="stroke:#181818;stroke-width:0.5;" width="80.8008" x="916.6528" y="524.5859"/><text fill="#000000" font-family="sans-serif" font-size="14" lengthAdjust="spacing" textLength="66.8008" x="923.6528" y="544.5811">Database</text></g><g class="message" data-participant-1="Utente" data-participant-2="GUI"><polygon fill="#181818" points="147.2246,145.7266,157.2246,149.7266,147.2246,153.7266,151.2246,149.7266" style="stroke:#181818;stroke-width:1;"/><line style="stroke:#181818;stroke-width:1;" x1="31.6626" x2="153.2246" y1="149.7266" y2="149.7266"/><text fill="#000000" font-family="sans-serif" font-size="13" lengthAdjust="spacing" textLength="103.562" x="38.6626" y="144.6606">1: Inserisce dati</text></g><g class="message" data-participant-1="GUI" data-participant-2="Controller"><polygon fill="#181818" points="350.9712,174.8594,360.9712,178.8594,350.9712,182.8594,354.9712,178.8594" style="stroke:#181818;stroke-width:1;"/><line style="stroke:#181818;stroke-width:1;" x1="159.2246" x2="356.9712" y1="178.8594" y2="178.8594"/><text fill="#000000" font-family="sans-serif" font-size="13" lengthAdjust="spacing" textLength="179.7466" x="166.2246" y="173.7935">2: Inoltra richiesta al server</text></g><g class="message" data-participant-1="Controller" data-participant-2="Service"><polygon fill="#181818" points="545.2534,203.9922,555.2534,207.9922,545.2534,211.9922,549.2534,207.9922" style="stroke:#181818;stroke-width:1;"/><line style="stroke:#181818;stroke-width:1;" x1="362.9712" x2="551.2534" y1="207.9922" y2="207.9922"/><text fill="#000000" font-family="sans-serif" font-size="13" lengthAdjust="spacing" textLength="120.7705" x="369.9712" y="202.9263">3: Validazione dati</text></g><g class="message" data-participant-1="Service" data-participant-2="Controller"><polygon fill="#181818" points="373.9712,233.125,363.9712,237.125,373.9712,241.125,369.9712,237.125" style="stroke:#181818;stroke-width:1;"/><line style="stroke:#181818;stroke-width:1;stroke-dasharray:2,2;" x1="367.9712" x2="556.2534" y1="237.125" y2="237.125"/><text fill="#000000" font-family="sans-serif" font-size="13" lengthAdjust="spacing" textLength="143.6348" x="379.9712" y="232.0591">4: Validazione riuscita</text></g><g class="message" data-participant-1="Service" data-participant-2="DAO"><polygon fill="#181818" points="716.9443,262.2578,726.9443,266.2578,716.9443,270.2578,720.9443,266.2578" style="stroke:#181818;stroke-width:1;"/><line style="stroke:#181818;stroke-width:1;" x1="557.2534" x2="722.9443" y1="266.2578" y2="266.2578"/><text fill="#000000" font-family="sans-serif" font-size="13" lengthAdjust="spacing" textLength="147.6909" x="564.2534" y="261.1919">5: Recupera/Salva dati</text></g><g class="message" data-participant-1="DAO" data-participant-2="DB"><polygon fill="#181818" points="945.0532,291.3906,955.0532,295.3906,945.0532,299.3906,949.0532,295.3906" style="stroke:#181818;stroke-width:1;"/><line style="stroke:#181818;stroke-width:1;" x1="728.9443" x2="951.0532" y1="295.3906" y2="295.3906"/><text fill="#000000" font-family="sans-serif" font-size="13" lengthAdjust="spacing" textLength="204.1089" x="735.9443" y="290.3247">6: Interroga/Aggiorna database</text></g><g class="message" data-participant-1="DB" data-participant-2="DAO"><polygon fill="#181818" points="739.9443,320.5234,729.9443,324.5234,739.9443,328.5234,735.9443,324.5234" style="stroke:#181818;stroke-width:1;"/><line style="stroke:#181818;stroke-width:1;stroke-dasharray:2,2;" x1="733.9443" x2="956.0532" y1="324.5234" y2="324.5234"/><text fill="#000000" font-family="sans-serif" font-size="13" lengthAdjust="spacing" textLength="117.2222" x="745.9443" y="319.4575">7: Restituisce dati</text></g><g class="message" data-participant-1="DAO" data-participant-2="Service"><polygon fill="#181818" points="568.2534,349.6563,558.2534,353.6563,568.2534,357.6563,564.2534,353.6563" style="stroke:#181818;stroke-width:1;"/><line style="stroke:#181818;stroke-width:1;stroke-dasharray:2,2;" x1="562.2534" x2="727.9443" y1="353.6563" y2="353.6563"/><text fill="#000000" font-family="sans-serif" font-size="13" lengthAdjust="spacing" textLength="145.9897" x="574.2534" y="348.5903">8: Restituisce risultato</text></g><g class="message" data-participant-1="Service" data-participant-2="Controller"><polygon fill="#181818" points="373.9712,378.7891,363.9712,382.7891,373.9712,386.7891,369.9712,382.7891" style="stroke:#181818;stroke-width:1;"/><line style="stroke:#181818;stroke-width:1;stroke-dasharray:2,2;" x1="367.9712" x2="556.2534" y1="382.7891" y2="382.7891"/><text fill="#000000" font-family="sans-serif" font-size="13" lengthAdjust="spacing" textLength="170.2822" x="379.9712" y="377.7231">9: Inoltra risposta al client</text></g><g class="message" data-participant-1="Controller" data-participant-2="GUI"><polygon fill="#181818" points="170.2246,407.9219,160.2246,411.9219,170.2246,415.9219,166.2246,411.9219" style="stroke:#181818;stroke-width:1;"/><line style="stroke:#181818;stroke-width:1;stroke-dasharray:2,2;" x1="164.2246" x2="361.9712" y1="411.9219" y2="411.9219"/><text fill="#000000" font-family="sans-serif" font-size="13" lengthAdjust="spacing" textLength="127.2324" x="176.2246" y="406.856">10: Mostra risultato</text></g><path d="M367,424.9219 L367,509.9219 L1065,509.9219 L1065,434.9219 L1055,424.9219 L367,424.9219" fill="#FEFFDD" style="stroke:#181818;stroke-width:0.5;"/><path d="M1055,424.9219 L1055,434.9219 L1065,434.9219 L1055,424.9219" fill="#FEFFDD" style="stroke:#181818;stroke-width:0.5;"/><text fill="#000000" font-family="sans-serif" font-size="13" lengthAdjust="spacing" textLength="442.6094" x="373" y="441.9888">Questo diagramma mostra lo schema tipico usato nell'applicazione:</text><text fill="#000000" font-family="sans-serif" font-size="13" lengthAdjust="spacing" textLength="225.875" x="373" y="457.1216">- la GUI raccoglie i dati dall'utente,</text><text fill="#000000" font-family="sans-serif" font-size="13" lengthAdjust="spacing" textLength="264.8877" x="373" y="472.2544">- il Controller li inoltra al Service remoto,</text><text fill="#000000" font-family="sans-serif" font-size="13" lengthAdjust="spacing" textLength="677.9932" x="373" y="487.3872">- il Service esegue controlli/validazioni e poi delega al DAO (implementazione JDBC) per l'accesso al DB,</text><text fill="#000000" font-family="sans-serif" font-size="13" lengthAdjust="spacing" textLength="357.4683" x="373" y="502.52">- i risultati risalgono fino alla GUI che aggiorna la vista.</text><!--SRC=[TL9BRzim3BxxLn2zT0EMPUzkEXHe6c3eW67OWkxEAgn3G1OzYVPXltwKx3o1NGnP_CZl8Ifh8DZGdu6Y9zWojWcx1hrAWaUbgDJqc9GzznWLhhu-Fi0LO0Oxd5SSt4lK925GgeZZxoLmGsbaewkm-USIixxxCTNjS5vRe-8JPfgggwQPTCBYjeXoyDR1GyoKE1T7gDmKqLOz2dBmhe0aQ498x7TCMH4mWFMD9lW8BOspH0Vl7Vp6m5lyonBduNipYmk63-VOn4Fsh7Z4tnPh3Zuw-4L-w2dXSeDXn6biyLyWAmUVYbQbbAJ5vLtRigHOKJM6Phsgt7NOJHcMbNKukg-JJbryFWTPK4DGLFclbI-dOULUvgnyO0l-BAl36xnnyDrmKySylecYXQxTASZpwNu0_1nCaUmNi4FefkuWaFsEx4AvPoymP1i5aKAunhuFxATydSrOGC123mczbzRK0TS8x6FmeQx9gmhaS48FWO5dVsPhdqAYJbGE-FqrPMe70Z-tyt8yl383GIz6Hu7QEgja_uAxFb1dvFCgV5klxbz2NuYlJIdbB1MxchaEaTKJXbQYmBCfDDJiq281t6-2tOriR_AweRY54l8_]--></g></svg>