<svg xmlns="http://www.w3.org/2000/svg" xmlns:xlink="http://www.w3.org/1999/xlink" contentStyleType="text/css" data-diagram-type="STATE" height="825px" preserveAspectRatio="none" style="width:893px;height:825px;background:#FFFFFF;" version="1.1" viewBox="0 0 893 825" width="893px" zoomAndPan="magnify"><defs/><g><g id="Benvenuti"><rect fill="#F1F1F1" height="50" rx="12.5" ry="12.5" style="stroke:#181818;stroke-width:0.5;" width="91.1143" x="576.9" y="103"/><line style="stroke:#181818;stroke-width:0.5;" x1="576.9" x2="668.0143" y1="129.2969" y2="129.2969"/><text fill="#000000" font-family="sans-serif" font-size="14" lengthAdjust="spacing" textLength="71.1143" x="586.9" y="120.9951">Benvenuti</text></g><g id="Login"><rect fill="#F1F1F1" height="50" rx="12.5" ry="12.5" style="stroke:#181818;stroke-width:0.5;" width="58.0146" x="471.45" y="214"/><line style="stroke:#181818;stroke-width:0.5;" x1="471.45" x2="529.4646" y1="240.2969" y2="240.2969"/><text fill="#000000" font-family="sans-serif" font-size="14" lengthAdjust="spacing" textLength="38.0146" x="481.45" y="231.9951">Login</text></g><g id="Registrazione"><rect fill="#F1F1F1" height="50" rx="12.5" ry="12.5" style="stroke:#181818;stroke-width:0.5;" width="115.5254" x="564.69" y="214"/><line style="stroke:#181818;stroke-width:0.5;" x1="564.69" x2="680.2154" y1="240.2969" y2="240.2969"/><text fill="#000000" font-family="sans-serif" font-size="14" lengthAdjust="spacing" textLength="95.5254" x="574.69" y="231.9951">Registrazione</text></g><g id="AreaPrivata"><rect fill="#F1F1F1" height="50" rx="12.5" ry="12.5" style="stroke:#181818;stroke-width:0.5;" width="101.5459" x="435.68" y="325"/><line style="stroke:#181818;stroke-width:0.5;" x1="435.68" x2="537.2259" y1="351.2969" y2="351.2969"/><text fill="#000000" font-family="sans-serif" font-size="14" lengthAdjust="spacing" textLength="81.5459" x="445.68" y="342.9951">AreaPrivata</text></g><g id="CercaLibri"><rect fill="#F1F1F1" height="50" rx="12.5" ry="12.5" style="stroke:#181818;stroke-width:0.5;" width="90.6426" x="654.13" y="547"/><line style="stroke:#181818;stroke-width:0.5;" x1="654.13" x2="744.7726" y1="573.2969" y2="573.2969"/><text fill="#000000" font-family="sans-serif" font-size="14" lengthAdjust="spacing" textLength="70.6426" x="664.13" y="564.9951">CercaLibri</text></g><g id="Librerie"><rect fill="#F1F1F1" height="50" rx="12.5" ry="12.5" style="stroke:#181818;stroke-width:0.5;" width="73.2041" x="129.85" y="436"/><line style="stroke:#181818;stroke-width:0.5;" x1="129.85" x2="203.0541" y1="462.2969" y2="462.2969"/><text fill="#000000" font-family="sans-serif" font-size="14" lengthAdjust="spacing" textLength="53.2041" x="139.85" y="453.9951">Librerie</text></g><g id="Valuta"><rect fill="#F1F1F1" height="50" rx="12.5" ry="12.5" style="stroke:#181818;stroke-width:0.5;" width="64.9873" x="133.96" y="547"/><line style="stroke:#181818;stroke-width:0.5;" x1="133.96" x2="198.9473" y1="573.2969" y2="573.2969"/><text fill="#000000" font-family="sans-serif" font-size="14" lengthAdjust="spacing" textLength="44.9873" x="143.96" y="564.9951">Valuta</text></g><g id="Consigla"><rect fill="#F1F1F1" height="50" rx="12.5" ry="12.5" style="stroke:#181818;stroke-width:0.5;" width="79.7529" x="233.58" y="547"/><line style="stroke:#181818;stroke-width:0.5;" x1="233.58" x2="313.3329" y1="573.2969" y2="573.2969"/><text fill="#000000" font-family="sans-serif" font-size="14" lengthAdjust="spacing" textLength="59.7529" x="243.58" y="564.9951">Consigla</text></g><g id="Le_Mie_Valutazioni"><rect fill="#F1F1F1" height="50" rx="12.5" ry="12.5" style="stroke:#181818;stroke-width:0.5;" width="152.5488" x="238.18" y="436"/><line style="stroke:#181818;stroke-width:0.5;" x1="238.18" x2="390.7288" y1="462.2969" y2="462.2969"/><text fill="#000000" font-family="sans-serif" font-size="14" lengthAdjust="spacing" textLength="132.5488" x="248.18" y="453.9951">Le_Mie_Valutazioni</text></g><g id="I_Miei_Consigli"><rect fill="#F1F1F1" height="50" rx="12.5" ry="12.5" style="stroke:#181818;stroke-width:0.5;" width="121.6641" x="425.62" y="436"/><line style="stroke:#181818;stroke-width:0.5;" x1="425.62" x2="547.2841" y1="462.2969" y2="462.2969"/><text fill="#000000" font-family="sans-serif" font-size="14" lengthAdjust="spacing" textLength="101.6641" x="435.62" y="453.9951">I_Miei_Consigli</text></g><g id="DettagliLibro"><rect fill="#F1F1F1" height="50" rx="12.5" ry="12.5" style="stroke:#181818;stroke-width:0.5;" width="110.5146" x="9.2" y="658"/><line style="stroke:#181818;stroke-width:0.5;" x1="9.2" x2="119.7146" y1="684.2969" y2="684.2969"/><text fill="#000000" font-family="sans-serif" font-size="14" lengthAdjust="spacing" textLength="90.5146" x="19.2" y="675.9951">DettagliLibro</text></g><g id="AllValutazioni"><rect fill="#F1F1F1" height="50" rx="12.5" ry="12.5" style="stroke:#181818;stroke-width:0.5;" width="114.9102" x="7" y="769"/><line style="stroke:#181818;stroke-width:0.5;" x1="7" x2="121.9102" y1="795.2969" y2="795.2969"/><text fill="#000000" font-family="sans-serif" font-size="14" lengthAdjust="spacing" textLength="94.9102" x="17" y="786.9951">AllValutazioni</text></g><ellipse cx="622.46" cy="16" fill="#222222" rx="10" ry="10" style="stroke:#222222;stroke-width:1;"/><!--link *start* to Benvenuti--><g class="link" data-entity-1=".start." data-entity-2="Benvenuti" data-source-line="1" data-uid="lnk3" id="link_.start._Benvenuti"><path d="M622.46,26.38 C622.46,43.11 622.46,72.59 622.46,96.63" fill="none" id="*start*-to-Benvenuti" style="stroke:#181818;stroke-width:1;"/><polygon fill="#181818" points="622.46,102.63,626.46,93.63,622.46,97.63,618.46,93.63,622.46,102.63" style="stroke:#181818;stroke-width:1;"/><text fill="#000000" font-family="sans-serif" font-size="13" lengthAdjust="spacing" textLength="63.4004" x="623.46" y="69.0669">Avvio GUI</text></g><!--link Benvenuti to Login--><g class="link" data-entity-1="Benvenuti" data-entity-2="Login" data-source-line="18" data-uid="lnk4" id="link_Benvenuti_Login"><path d="M584.23,153.46 C561.59,171.41 538.6233,191.3986 521.1033,209.3286" fill="none" id="Benvenuti-to-Login" style="stroke:#181818;stroke-width:1;"/><polygon fill="#181818" points="516.91,213.62,526.0609,209.9784,520.4044,210.0438,520.339,204.3873,516.91,213.62" style="stroke:#181818;stroke-width:1;"/></g><!--link Login to Benvenuti--><g class="link" data-entity-1="Login" data-entity-2="Benvenuti" data-source-line="22" data-uid="lnk8" id="link_Login_Benvenuti"><path d="M529.95,220.74 C554.19,202.6 582.5542,178.2285 602.3842,157.7685" fill="none" id="Login-to-Benvenuti" style="stroke:#181818;stroke-width:1;"/><polygon fill="#181818" points="606.56,153.46,597.424,157.1388,603.0802,157.0504,603.1686,162.7065,606.56,153.46" style="stroke:#181818;stroke-width:1;"/></g><!--link Benvenuti to Registrazione--><g class="link" data-entity-1="Benvenuti" data-entity-2="Registrazione" data-source-line="19" data-uid="lnk5" id="link_Benvenuti_Registrazione"><path d="M611.61,153.46 C609.07,171.41 608.2252,189.7498 610.7752,207.6798" fill="none" id="Benvenuti-to-Registrazione" style="stroke:#181818;stroke-width:1;"/><polygon fill="#181818" points="611.62,213.62,614.3129,204.1464,610.916,208.6698,606.3926,205.2729,611.62,213.62" style="stroke:#181818;stroke-width:1;"/></g><!--link Registrazione to Benvenuti--><g class="link" data-entity-1="Registrazione" data-entity-2="Benvenuti" data-source-line="23" data-uid="lnk9" id="link_Registrazione_Benvenuti"><path d="M633.92,213.62 C636.63,195.69 637.5192,177.3437 634.8292,159.3937" fill="none" id="Registrazione-to-Benvenuti" style="stroke:#181818;stroke-width:1;"/><polygon fill="#181818" points="633.94,153.46,631.318,162.9534,634.681,158.4048,639.2297,161.7678,633.94,153.46" style="stroke:#181818;stroke-width:1;"/></g><!--link Benvenuti to CercaLibri--><g class="link" data-entity-1="Benvenuti" data-entity-2="CercaLibri" data-source-line="20" data-uid="lnk6" id="link_Benvenuti_CercaLibri"><path d="M668.32,130.22 C735.51,135.16 851.46,155.9 851.46,238 C851.46,238 851.46,238 851.46,462 C851.46,515.77 796.0227,542.487 750.9827,556.677" fill="none" id="Benvenuti-to-CercaLibri" style="stroke:#181818;stroke-width:1;"/><polygon fill="#181818" points="745.26,558.48,755.046,559.5907,750.0289,556.9775,752.6421,551.9604,745.26,558.48" style="stroke:#181818;stroke-width:1;"/></g><!--link CercaLibri to Benvenuti--><g class="link" data-entity-1="CercaLibri" data-entity-2="Benvenuti" data-source-line="21" data-uid="lnk7" id="link_CercaLibri_Benvenuti"><path d="M745.19,564.87 C801.04,553.83 886.46,525.54 886.46,462 C886.46,238 886.46,238 886.46,238 C886.46,147.14 750.4472,131.612 674.3272,129.302" fill="none" id="CercaLibri-to-Benvenuti" style="stroke:#181818;stroke-width:1;"/><polygon fill="#181818" points="668.33,129.12,677.2045,133.3912,673.3277,129.2717,677.4472,125.3948,668.33,129.12" style="stroke:#181818;stroke-width:1;"/></g><!--link Login to AreaPrivata--><g class="link" data-entity-1="Login" data-entity-2="AreaPrivata" data-source-line="26" data-uid="lnk10" id="link_Login_AreaPrivata"><path d="M497.31,264.46 C495.01,282.41 492.6534,300.7388 490.3534,318.6688" fill="none" id="Login-to-AreaPrivata" style="stroke:#181818;stroke-width:1;"/><polygon fill="#181818" points="489.59,324.62,494.7026,316.2021,490.2262,319.6606,486.7676,315.1842,489.59,324.62" style="stroke:#181818;stroke-width:1;"/></g><!--link AreaPrivata to CercaLibri--><g class="link" data-entity-1="AreaPrivata" data-entity-2="CercaLibri" data-source-line="30" data-uid="lnk11" id="link_AreaPrivata_CercaLibri"><path d="M537.62,352.02 C596.41,356.28 690.54,373.21 735.46,436 C759.37,469.44 739.0961,512.7404 720.4561,541.5904" fill="none" id="AreaPrivata-to-CercaLibri" style="stroke:#181818;stroke-width:1;"/><polygon fill="#181818" points="717.2,546.63,725.4439,541.2413,719.9134,542.4303,718.7244,536.8998,717.2,546.63" style="stroke:#181818;stroke-width:1;"/></g><!--link CercaLibri to AreaPrivata--><g class="link" data-entity-1="CercaLibri" data-entity-2="AreaPrivata" data-source-line="36" data-uid="lnk15" id="link_CercaLibri_AreaPrivata"><path d="M675.74,546.51 C634.72,504.14 555.1838,421.9804 514.2338,379.6904" fill="none" id="CercaLibri-to-AreaPrivata" style="stroke:#181818;stroke-width:1;"/><polygon fill="#181818" points="510.06,375.38,513.4471,384.6281,513.5382,378.972,519.1943,379.063,510.06,375.38" style="stroke:#181818;stroke-width:1;"/><text fill="#000000" font-family="sans-serif" font-size="13" lengthAdjust="spacing" textLength="108.6846" x="618.46" y="465.5669">GestisciSessione</text></g><!--link AreaPrivata to Librerie--><g class="link" data-entity-1="AreaPrivata" data-entity-2="Librerie" data-source-line="31" data-uid="lnk12" id="link_AreaPrivata_Librerie"><path d="M435.66,362.08 C378.05,377.15 288.7281,403.5672 209.5281,433.6872" fill="none" id="AreaPrivata-to-Librerie" style="stroke:#181818;stroke-width:1;"/><polygon fill="#181818" points="203.92,435.82,213.7541,436.3596,208.5934,434.0427,210.9103,428.8821,203.92,435.82" style="stroke:#181818;stroke-width:1;"/></g><!--link Librerie to AreaPrivata--><g class="link" data-entity-1="Librerie" data-entity-2="AreaPrivata" data-source-line="37" data-uid="lnk16" id="link_Librerie_AreaPrivata"><path d="M203.29,450.23 C214.99,445.65 227.24,440.27 238.46,436 C305.74,410.39 378.7497,387.7006 429.4897,371.6406" fill="none" id="Librerie-to-AreaPrivata" style="stroke:#181818;stroke-width:1;"/><polygon fill="#181818" points="435.21,369.83,425.4225,368.7323,430.4431,371.3388,427.8366,376.3594,435.21,369.83" style="stroke:#181818;stroke-width:1;"/></g><!--link AreaPrivata to I_Miei_Consigli--><g class="link" data-entity-1="AreaPrivata" data-entity-2="I_Miei_Consigli" data-source-line="32" data-uid="lnk13" id="link_AreaPrivata_I_Miei_Consigli"><path d="M475.61,375.46 C473.07,393.41 472.2252,411.7498 474.7752,429.6798" fill="none" id="AreaPrivata-to-I_Miei_Consigli" style="stroke:#181818;stroke-width:1;"/><polygon fill="#181818" points="475.62,435.62,478.3129,426.1464,474.916,430.6698,470.3926,427.2729,475.62,435.62" style="stroke:#181818;stroke-width:1;"/></g><!--link I_Miei_Consigli to AreaPrivata--><g class="link" data-entity-1="I_Miei_Consigli" data-entity-2="AreaPrivata" data-source-line="38" data-uid="lnk17" id="link_I_Miei_Consigli_AreaPrivata"><path d="M497.92,435.62 C500.63,417.69 501.5192,399.3437 498.8292,381.3937" fill="none" id="I_Miei_Consigli-to-AreaPrivata" style="stroke:#181818;stroke-width:1;"/><polygon fill="#181818" points="497.94,375.46,495.318,384.9534,498.681,380.4048,503.2297,383.7678,497.94,375.46" style="stroke:#181818;stroke-width:1;"/></g><!--link AreaPrivata to Le_Mie_Valutazioni--><g class="link" data-entity-1="AreaPrivata" data-entity-2="Le_Mie_Valutazioni" data-source-line="33" data-uid="lnk14" id="link_AreaPrivata_Le_Mie_Valutazioni"><path d="M437.01,375.46 C406.14,393.41 372.7639,414.2614 347.0139,432.1914" fill="none" id="AreaPrivata-to-Le_Mie_Valutazioni" style="stroke:#181818;stroke-width:1;"/><polygon fill="#181818" points="342.09,435.62,351.7616,433.7597,346.1933,432.7629,347.1902,427.1945,342.09,435.62" style="stroke:#181818;stroke-width:1;"/></g><!--link Le_Mie_Valutazioni to AreaPrivata--><g class="link" data-entity-1="Le_Mie_Valutazioni" data-entity-2="AreaPrivata" data-source-line="39" data-uid="lnk18" id="link_Le_Mie_Valutazioni_AreaPrivata"><path d="M364.4,435.62 C395.4,417.69 428.7848,396.851 454.4248,378.901" fill="none" id="Le_Mie_Valutazioni-to-AreaPrivata" style="stroke:#181818;stroke-width:1;"/><polygon fill="#181818" points="459.34,375.46,449.6732,377.3447,455.244,378.3275,454.2612,383.8984,459.34,375.46" style="stroke:#181818;stroke-width:1;"/></g><!--link Librerie to Valuta--><g class="link" data-entity-1="Librerie" data-entity-2="Valuta" data-source-line="41" data-uid="lnk19" id="link_Librerie_Valuta"><path d="M155.61,486.46 C153.07,504.41 152.2252,522.7498 154.7752,540.6798" fill="none" id="Librerie-to-Valuta" style="stroke:#181818;stroke-width:1;"/><polygon fill="#181818" points="155.62,546.62,158.3129,537.1464,154.916,541.6698,150.3926,538.2729,155.62,546.62" style="stroke:#181818;stroke-width:1;"/></g><!--link Valuta to Librerie--><g class="link" data-entity-1="Valuta" data-entity-2="Librerie" data-source-line="45" data-uid="lnk23" id="link_Valuta_Librerie"><path d="M177.92,546.62 C180.63,528.69 181.5192,510.3437 178.8292,492.3937" fill="none" id="Valuta-to-Librerie" style="stroke:#181818;stroke-width:1;"/><polygon fill="#181818" points="177.94,486.46,175.318,495.9534,178.681,491.4048,183.2297,494.7678,177.94,486.46" style="stroke:#181818;stroke-width:1;"/></g><!--link Librerie to Consigla--><g class="link" data-entity-1="Librerie" data-entity-2="Consigla" data-source-line="42" data-uid="lnk20" id="link_Librerie_Consigla"><path d="M179.62,486.46 C194.7,504.41 214.0466,524.7026 234.2066,542.6326" fill="none" id="Librerie-to-Consigla" style="stroke:#181818;stroke-width:1;"/><polygon fill="#181818" points="238.69,546.62,234.6233,537.65,234.9539,543.2971,229.3067,543.6278,238.69,546.62" style="stroke:#181818;stroke-width:1;"/></g><!--link Consigla to Librerie--><g class="link" data-entity-1="Consigla" data-entity-2="Librerie" data-source-line="46" data-uid="lnk24" id="link_Consigla_Librerie"><path d="M260.99,546.62 C246.09,528.69 226.7668,508.3823 206.4468,490.4323" fill="none" id="Consigla-to-Librerie" style="stroke:#181818;stroke-width:1;"/><polygon fill="#181818" points="201.95,486.46,206.047,495.4163,205.6973,489.7702,211.3433,489.4206,201.95,486.46" style="stroke:#181818;stroke-width:1;"/></g><!--link Librerie to DettagliLibro--><g class="link" data-entity-1="Librerie" data-entity-2="DettagliLibro" data-source-line="43" data-uid="lnk21" id="link_Librerie_DettagliLibro"><path d="M136.3,486.33 C123.25,503.02 109.65,525.88 99.46,547 C81.33,584.55 65.8671,624.2468 61.1471,651.6868" fill="none" id="Librerie-to-DettagliLibro" style="stroke:#181818;stroke-width:1;"/><polygon fill="#181818" points="60.13,657.6,65.5978,649.4084,60.9776,652.6724,57.7136,648.0522,60.13,657.6" style="stroke:#181818;stroke-width:1;"/></g><!--link Librerie to DettagliLibro--><g class="link" data-entity-1="Librerie" data-entity-2="DettagliLibro" data-source-line="50" data-uid="lnk26" id="link_Librerie_DettagliLibro"><path d="M165.94,486.33 C158.25,503.02 144.65,525.88 134.46,547 C116.33,584.55 102.6168,624.836 88.3568,652.276" fill="none" id="Librerie-to-DettagliLibro-1" style="stroke:#181818;stroke-width:1;"/><polygon fill="#181818" points="85.59,657.6,93.2895,651.4585,87.8956,653.1633,86.1908,647.7695,85.59,657.6" style="stroke:#181818;stroke-width:1;"/></g><!--link Librerie to CercaLibri--><g class="link" data-entity-1="Librerie" data-entity-2="CercaLibri" data-source-line="44" data-uid="lnk22" id="link_Librerie_CercaLibri"><path d="M203.48,479.86 C209.08,482.15 214.86,484.29 220.46,486 C375.52,533.45 561.4629,556.9126 647.7229,565.9826" fill="none" id="Librerie-to-CercaLibri" style="stroke:#181818;stroke-width:1;"/><polygon fill="#181818" points="653.69,566.61,645.1576,561.6908,648.7174,566.0871,644.3211,569.6469,653.69,566.61" style="stroke:#181818;stroke-width:1;"/></g><!--link CercaLibri to DettagliLibro--><g class="link" data-entity-1="CercaLibri" data-entity-2="DettagliLibro" data-source-line="49" data-uid="lnk25" id="link_CercaLibri_DettagliLibro"><path d="M653.79,580.84 C539.9,600.39 249.4935,650.2347 125.8435,671.4647" fill="none" id="CercaLibri-to-DettagliLibro" style="stroke:#181818;stroke-width:1;"/><polygon fill="#181818" points="119.93,672.48,129.4771,674.8994,124.8579,671.6339,128.1233,667.0147,119.93,672.48" style="stroke:#181818;stroke-width:1;"/></g><!--link DettagliLibro to AllValutazioni--><g class="link" data-entity-1="DettagliLibro" data-entity-2="AllValutazioni" data-source-line="54" data-uid="lnk27" id="link_DettagliLibro_AllValutazioni"><path d="M53.61,708.46 C51.07,726.41 50.2252,744.7498 52.7752,762.6798" fill="none" id="DettagliLibro-to-AllValutazioni" style="stroke:#181818;stroke-width:1;"/><polygon fill="#181818" points="53.62,768.62,56.3129,759.1464,52.916,763.6698,48.3926,760.2729,53.62,768.62" style="stroke:#181818;stroke-width:1;"/></g><!--link AllValutazioni to DettagliLibro--><g class="link" data-entity-1="AllValutazioni" data-entity-2="DettagliLibro" data-source-line="57" data-uid="lnk28" id="link_AllValutazioni_DettagliLibro"><path d="M75.92,768.62 C78.63,750.69 79.5192,732.3437 76.8292,714.3937" fill="none" id="AllValutazioni-to-DettagliLibro" style="stroke:#181818;stroke-width:1;"/><polygon fill="#181818" points="75.94,708.46,73.318,717.9534,76.681,713.4048,81.2297,716.7678,75.94,708.46" style="stroke:#181818;stroke-width:1;"/></g><!--link AreaPrivata to Benvenuti--><g class="link" data-entity-1="AreaPrivata" data-entity-2="Benvenuti" data-source-line="60" data-uid="lnk29" id="link_AreaPrivata_Benvenuti"><path d="M537.36,344.34 C587.59,336.73 661.87,316.69 697.46,264 C722.44,227 687.646,185.059 657.156,157.429" fill="none" id="AreaPrivata-to-Benvenuti" style="stroke:#181818;stroke-width:1;"/><polygon fill="#181818" points="652.71,153.4,656.6931,162.4075,656.415,156.7575,662.065,156.4795,652.71,153.4" style="stroke:#181818;stroke-width:1;"/><text fill="#000000" font-family="sans-serif" font-size="13" lengthAdjust="spacing" textLength="41.1074" x="705.46" y="243.5669">logout</text></g><!--SRC=[VLHBRjim4Dtp5BEBKy3jFei2ReC60PAWI95kYiAOo1Dr09eKg94MFatlqejrg9z9oiXEVFD_yqQ_Flo6xVOpV27Na-k4uGPsVSyUxbxkZMa5XHBZ13pucjtyUAQQMmbuOky8PdGN2By7xb4G5l0hXGeV-3Nm0iKN1QRf-HDj9pYxUzToRN7nfVqZqtxqYULuCjn7dFUJ_pdvBOcW0h68LtJkpTeaXy9NyCrsRUkX2UmgRj0Il2v3Aprs6FWJX7HMS-ObKZYGKc0vDuKnOSCat_awpCXr0UPv2wEEi-k4d70rEGJksegLrtEoT3zc2AagYXGWl7KkXg5b-VSN3cZj5Qft92UwcpIqdAEqpUjTMrOxkn2ythSs-ipYWzD6YxvWG-r7SDXpZQBEq7IsHMNXkcGthNC3TzGAApq_TFnXhKlFAvxAdbSEwuxX0jjPWKdn6JOBFqSpDHS1ou1cp9UHRvP3obUYP3uDT8qgcVF3U2u7X1wZdm-igc7ODC6hnfZS2Q6Eh6aTzLBP7LSSvwVtpY136xTOLiU3BbW2GQz29sWRglYDgpzaJ1u-q5iUj2cGorLVub5e1GfHzwcKV7B-6pr-tmbmuuLF9nIlFI5KtadmrbA0BJYL6yS0OJnwE9BuWxzU2JhzouvP_mC0]--></g></svg>